<?xml version="1.0" encoding="UTF-8"?>
<svg version="1.1" xmlns="http://www.w3.org/2000/svg" width="651" height="383">
<path d="M0 0 C0.70254913 0.00960754 1.40509827 0.01921509 2.12893677 0.02911377 C4.45568733 0.0621469 6.78225265 0.10246264 9.10888672 0.14282227 C10.72027937 0.16711918 12.33167891 0.19096295 13.94308472 0.21437073 C18.18792561 0.27725439 22.43264477 0.34630886 26.67736816 0.41662598 C31.00734912 0.4872708 35.33741651 0.5521108 39.66748047 0.61743164 C48.16627408 0.74649916 56.66494788 0.88208241 65.16357422 1.02172852 C65.29544128 1.63960236 65.42730835 2.2574762 65.56317139 2.89407349 C65.73906799 3.70464203 65.9149646 4.51521057 66.09619141 5.3503418 C66.26930847 6.15384064 66.44242554 6.95733948 66.62078857 7.78518677 C67.64359606 11.99965276 69.5374993 15.58708011 72.16357422 19.02172852 C75.21396643 20.92379701 75.21396643 20.92379701 78.16357422 22.02172852 C80.16357422 25.02172852 80.16357422 25.02172852 80.16357422 27.02172852 C69.93357422 27.02172852 59.70357422 27.02172852 49.16357422 27.02172852 C45.40455955 36.29893243 45.40455955 36.29893243 46.16357422 46.02172852 C47.3042334 46.0164917 48.44489258 46.01125488 49.62011719 46.00585938 C53.84309101 45.98778983 58.0660614 45.97628932 62.2890625 45.96679688 C64.11849542 45.96176114 65.94792431 45.95493225 67.77734375 45.94628906 C70.4034932 45.93419027 73.02958954 45.92849269 75.65576172 45.92407227 C76.47664276 45.91891098 77.2975238 45.91374969 78.14328003 45.90843201 C83.93583081 45.90785681 83.93583081 45.90785681 86.16357422 47.02172852 C83.65434913 65.32431154 83.65434913 65.32431154 81.16357422 72.02172852 C80.17357422 72.68172852 79.18357422 73.34172852 78.16357422 74.02172852 C77.50357422 73.69172852 76.84357422 73.36172852 76.16357422 73.02172852 C73.53730289 72.93505597 70.93794939 72.90612716 68.31201172 72.92407227 C67.1509642 72.92619469 67.1509642 72.92619469 65.96646118 72.92835999 C63.4904598 72.93396448 61.01454834 72.94651768 58.53857422 72.95922852 C56.86149219 72.96424294 55.18440875 72.96880595 53.50732422 72.97290039 C49.39270616 72.98393537 45.27815544 73.00120298 41.16357422 73.02172852 C41.16357422 73.68172852 41.16357422 74.34172852 41.16357422 75.02172852 C40.50357422 75.02172852 39.84357422 75.02172852 39.16357422 75.02172852 C39.49357422 76.01172852 39.82357422 77.00172852 40.16357422 78.02172852 C39.54975164 80.03857414 38.87765756 82.03816369 38.16357422 84.02172852 C37.81172353 85.68458449 37.47509445 87.3508473 37.16357422 89.02172852 C37.76048065 89.00697983 38.35738708 88.99223114 38.97238159 88.97703552 C45.16862535 88.82495401 51.36500804 88.68012029 57.56152344 88.53955078 C59.87602057 88.4860843 62.19047535 88.43075146 64.50488281 88.37353516 C67.8259162 88.29175382 71.14704258 88.21662119 74.46826172 88.14282227 C75.50788055 88.1157872 76.54749939 88.08875214 77.61862183 88.06089783 C78.57946686 88.04080154 79.54031189 88.02070526 80.53027344 88 C81.37854706 87.9800145 82.22682068 87.96002899 83.10079956 87.93943787 C85.16357422 88.02172852 85.16357422 88.02172852 87.16357422 89.02172852 C86.7706572 98.0588199 86.35669639 107.46579858 83.16357422 116.02172852 C79.18068163 117.34935938 75.35114801 117.18586487 71.19750977 117.19873047 C70.28012024 117.20530167 69.36273071 117.21187286 68.4175415 117.21864319 C65.37845784 117.2383708 62.33942356 117.25003706 59.30029297 117.26000977 C58.26243967 117.26408529 57.22458637 117.26816082 56.15528297 117.27235985 C50.66301294 117.2932174 45.17076787 117.307521 39.6784668 117.31689453 C34.00557167 117.32796369 28.33306827 117.36237057 22.6603117 117.40206623 C18.29797129 117.42820746 13.93572461 117.43658412 9.57331276 117.44017601 C7.48213871 117.44504769 5.39096901 117.45667818 3.29987144 117.475214 C0.37220541 117.49955404 -2.55444155 117.49864978 -5.48217773 117.49169922 C-6.77523079 117.51091431 -6.77523079 117.51091431 -8.09440613 117.53051758 C-13.56815489 117.48319934 -16.69965479 116.71793874 -20.83642578 113.02172852 C-20.83642578 112.03172852 -20.83642578 111.04172852 -20.83642578 110.02172852 C-21.49642578 109.69172852 -22.15642578 109.36172852 -22.83642578 109.02172852 C-22.17642578 109.02172852 -21.51642578 109.02172852 -20.83642578 109.02172852 C-20.96017578 108.29985352 -21.08392578 107.57797852 -21.21142578 106.83422852 C-20.77640747 103.57159116 -20.28081427 103.21752892 -17.83642578 101.20922852 C-16.35142578 100.12641602 -16.35142578 100.12641602 -14.83642578 99.02172852 C-14.83642578 99.68172852 -14.83642578 100.34172852 -14.83642578 101.02172852 C-11.20642578 101.02172852 -7.57642578 101.02172852 -3.83642578 101.02172852 C-3.50642578 100.36172852 -3.17642578 99.70172852 -2.83642578 99.02172852 C-0.27392578 98.39672852 -0.27392578 98.39672852 2.16357422 98.02172852 C2.49357422 96.37172852 2.82357422 94.72172852 3.16357422 93.02172852 C-0.53629911 91.86914713 -4.08740375 91.84840235 -7.94580078 91.77563477 C-9.35466078 91.74268025 -10.7635148 91.70946889 -12.17236328 91.67602539 C-14.37511887 91.62880951 -16.57785306 91.58438208 -18.78076172 91.54492188 C-33.90998333 91.26103648 -33.90998333 91.26103648 -40.83642578 89.02172852 C-41.87176744 84.70780493 -42.16640137 82.68167968 -40.14892578 78.64672852 C-37.72474568 75.8949565 -37.24186044 75.57820827 -33.83642578 75.02172852 C-31.03433194 74.94977387 -28.25845247 74.9294019 -25.45751953 74.95922852 C-24.24480125 74.96490845 -24.24480125 74.96490845 -23.00758362 74.97070312 C-20.42964305 74.98289955 -17.85181534 75.00153052 -15.27392578 75.02172852 C-11.87679336 75.04829085 -8.47971657 75.06829843 -5.08251953 75.08422852 C-4.30122177 75.09252686 -3.51992401 75.1008252 -2.71495056 75.109375 C0.51701215 75.12404714 3.0738719 75.05162929 6.16357422 74.02172852 C5.66857422 70.55672852 5.66857422 70.55672852 5.16357422 67.02172852 C0.72998245 65.54386459 -3.7430115 65.63254643 -8.39111328 65.40063477 C-11.64024866 65.04330355 -13.97325721 64.58009517 -16.83642578 63.02172852 C-18.18658437 58.97125276 -17.45727576 56.22971172 -16.83642578 52.02172852 C-11.30221838 50.1943258 -6.20657753 49.62135969 -0.39892578 49.39672852 C0.84147461 49.3387207 0.84147461 49.3387207 2.10693359 49.27954102 C4.12548494 49.1861976 6.14449753 49.1029189 8.16357422 49.02172852 C8.16357422 46.38172852 8.16357422 43.74172852 8.16357422 41.02172852 C-5.69642578 40.69172852 -19.55642578 40.36172852 -33.83642578 40.02172852 C-36.83642578 33.02172852 -36.83642578 33.02172852 -36.77392578 30.27172852 C-35.54110247 27.31295257 -34.67050247 26.56615662 -31.83642578 25.02172852 C-28.82699492 24.6723323 -25.85873615 24.81652177 -22.83642578 24.93969727 C-21.04477628 24.97762633 -19.25310872 25.01470993 -17.46142578 25.05102539 C-14.64314292 25.12556622 -11.8258008 25.20960549 -9.00830078 25.30957031 C-6.28428152 25.40016488 -3.56147004 25.45347062 -0.83642578 25.50219727 C0.00533203 25.54257614 0.84708984 25.58295502 1.71435547 25.6245575 C4.01554433 25.65417271 5.94085104 25.62132625 8.16357422 25.02172852 C11.32855803 21.50745648 11.32855803 21.50745648 12.16357422 17.02172852 C6.91793554 15.72025377 1.89857285 16.12883526 -3.46142578 16.37719727 C-7.49735739 15.95211651 -9.03884271 14.90705865 -11.83642578 12.02172852 C-13.27232322 6.89352339 -13.27232322 6.89352339 -11.83642578 4.02172852 C-11.17642578 4.02172852 -10.51642578 4.02172852 -9.83642578 4.02172852 C-9.50642578 3.03172852 -9.17642578 2.04172852 -8.83642578 1.02172852 C-5.88426014 -0.45435431 -3.29379141 -0.05164481 0 0 Z " fill="#090908" transform="translate(164.83642578125,128.978271484375)"/>
<path d="M0 0 C4.22687616 5.33921199 5.32629426 9.25658532 5 16 C3.55642023 24.44357977 3.55642023 24.44357977 2 26 C-0.86267567 26.07325168 -3.700719 26.09238205 -6.5625 26.0625 C-7.36880859 26.05798828 -8.17511719 26.05347656 -9.00585938 26.04882812 C-11.00393756 26.03700518 -13.00197783 26.01906914 -15 26 C-14.83701416 25.39317383 -14.67402832 24.78634766 -14.50610352 24.16113281 C-13.91324178 21.62953024 -13.90332692 19.34715415 -13.9375 16.75 C-13.94652344 15.85796875 -13.95554687 14.9659375 -13.96484375 14.046875 C-13.97644531 13.37140625 -13.98804688 12.6959375 -14 12 C-15.216875 11.87625 -16.43375 11.7525 -17.6875 11.625 C-18.71423828 11.52058594 -18.71423828 11.52058594 -19.76171875 11.4140625 C-22.67861111 12.17764689 -24.1162065 13.73180984 -25.92260742 16.09228516 C-27.92269345 19.63379257 -28.32023301 23.38669677 -28.8125 27.375 C-28.93302734 28.18710938 -29.05355469 28.99921875 -29.17773438 29.8359375 C-29.89229704 34.93179007 -30.1123118 39.8573019 -30 45 C-28.54257537 45.08096803 -27.08387193 45.13917774 -25.625 45.1875 C-24.40683594 45.23970703 -24.40683594 45.23970703 -23.1640625 45.29296875 C-22.44992187 45.19628906 -21.73578125 45.09960938 -21 45 C-20.34 44.01 -19.68 43.02 -19 42 C-20.65 41.67 -22.3 41.34 -24 41 C-23.93999894 39.3739713 -23.8512115 37.74898451 -23.75 36.125 C-23.68039062 34.76761719 -23.68039062 34.76761719 -23.609375 33.3828125 C-23 31 -23 31 -21.2734375 29.86328125 C-18.68849176 28.88171251 -16.77511092 28.77103523 -14.015625 28.8046875 C-12.61376953 28.81435547 -12.61376953 28.81435547 -11.18359375 28.82421875 C-10.21550781 28.84097656 -9.24742187 28.85773438 -8.25 28.875 C-7.26644531 28.88402344 -6.28289062 28.89304688 -5.26953125 28.90234375 C-2.84610593 28.92587215 -0.42317778 28.95874632 2 29 C2.20222709 37.51482499 1.09392801 46.67670257 -4.40625 53.53515625 C-11.18474404 59.76538974 -18.47099439 61.19661732 -27.3125 61.25 C-28.15490234 61.270625 -28.99730469 61.29125 -29.86523438 61.3125 C-35.75881919 61.3493637 -40.11401715 60.6323454 -44.64453125 56.5 C-49.79142305 49.88994498 -49.55086968 44.14088012 -48.68554688 36.06542969 C-48.25686364 32.99187056 -47.76578942 29.93509397 -47.25 26.875 C-47.09273438 25.84246094 -46.93546875 24.80992187 -46.7734375 23.74609375 C-45.14432939 13.90878707 -42.07578914 6.21341328 -34 0 C-24.0895626 -5.52152941 -9.79458359 -5.68085848 0 0 Z " fill="#7060E3" transform="translate(323,184)"/>
<path d="M0 0 C10.89 0 21.78 0 33 0 C34 5 34 5 32 12 C25.07 12 18.14 12 11 12 C11.33 13.65 11.66 15.3 12 17 C17.28 17.33 22.56 17.66 28 18 C27.46610545 23.03386292 26.89474106 28.01501407 26 33 C25.34 33 24.68 33 24 33 C24 32.34 24 31.68 24 31 C22.68 31.33 21.36 31.66 20 32 C20 31.34 20 30.68 20 30 C18.54054712 30.08708669 17.08234132 30.19526907 15.625 30.3125 C14.81289063 30.37050781 14.00078125 30.42851562 13.1640625 30.48828125 C10.62078662 30.82990528 10.62078662 30.82990528 9 34 C13.14683305 35.38227768 17.3069608 35.38541946 21.63867188 35.60546875 C26.79829388 35.89914694 26.79829388 35.89914694 29 37 C29 38.32 29 39.64 29 41 C33.34803556 40.27059098 35.14708753 38.23624067 37.86328125 34.91796875 C39.28679086 32.88768772 39.28679086 32.88768772 39 29.625 C38.28607319 26.86110939 38.28607319 26.86110939 36 26 C35.26919734 24.02253397 34.60578253 22.01927511 34 20 C33.505 18.515 33.505 18.515 33 17 C33 16.01 33 15.02 33 14 C35.10353495 13.9189794 37.20795952 13.86080093 39.3125 13.8125 C41.07013672 13.76029297 41.07013672 13.76029297 42.86328125 13.70703125 C46 14 46 14 47.79296875 15.32421875 C48.89757137 16.85779327 49.95163163 18.42744745 51 20 C51.7425 19.21625 52.485 18.4325 53.25 17.625 C57.73106686 13.80418695 63.33696986 13.61395311 69 13 C69 13.66 69 14.32 69 15 C69.99 15 70.98 15 72 15 C72 15.99 72 16.98 72 18 C71.01 18.66 70.02 19.32 69 20 C68.67 20.66 68.34 21.32 68 22 C65.5625 24.625 65.5625 24.625 63 27 C62.34 27 61.68 27 61 27 C59.91102442 32.17263401 60.08045561 34.98785632 62 40 C62.66 40.33 63.32 40.66 64 41 C65.53712084 43.34613181 66.09239476 44.44563145 65.625 47.25 C65.41875 47.8275 65.2125 48.405 65 49 C61.97265625 48.95117188 61.97265625 48.95117188 58.9453125 48.90234375 C56.91814596 48.87350758 56.91814596 48.87350758 55 50 C53 48.625 53 48.625 51 47 C51 46.34 51 45.68 51 45 C48.88214887 43.88214887 48.88214887 43.88214887 46 43 C44.35 45.31 42.7 47.62 41 50 C40.67 49.34 40.34 48.68 40 48 C39.31292969 48.08378906 38.62585938 48.16757813 37.91796875 48.25390625 C36.56638672 48.40666016 36.56638672 48.40666016 35.1875 48.5625 C33.84751953 48.71912109 33.84751953 48.71912109 32.48046875 48.87890625 C30 49 30 49 27 48 C25.6634582 48.32022635 24.33062337 48.65600823 23 49 C20.93753738 49.08115809 18.87262876 49.10756264 16.80859375 49.09765625 C15.61685547 49.09443359 14.42511719 49.09121094 13.19726562 49.08789062 C11.33618164 49.07532227 11.33618164 49.07532227 9.4375 49.0625 C8.19291016 49.05798828 6.94832031 49.05347656 5.66601562 49.04882812 C3.36253917 49.04009811 1.05906896 49.02931972 -1.24438477 49.01586914 C-3.16289866 49.00482073 -5.0814543 49 -7 49 C-8.23762274 44.76695448 -7.7673373 40.94578307 -7.25 36.625 C-7.15710693 35.82425049 -7.06421387 35.02350098 -6.96850586 34.19848633 C-6.0892339 27.0235986 -4.67055138 20.03116514 -3 13 C-2.01 8.71 -1.02 4.42 0 0 Z " fill="#171814" transform="translate(295,127)"/>
<path d="M0 0 C4.43546081 3.434207 7.02071217 7.3126163 7.9765625 12.87109375 C7.94895485 16.72926291 7.19823126 20.20608748 5.9765625 23.87109375 C5.3165625 23.87109375 4.6565625 23.87109375 3.9765625 23.87109375 C3.73035156 24.49628906 3.48414063 25.12148437 3.23046875 25.765625 C1.40116679 28.83725663 -0.95638829 29.19297113 -4.24609375 30.2578125 C-7.30581988 33.03510237 -6.7484532 36.92302601 -7.0234375 40.87109375 C-7.25888575 42.69742639 -7.51063089 44.52172063 -7.77734375 46.34375 C-7.90947266 47.26220703 -8.04160156 48.18066406 -8.17773438 49.12695312 C-8.31244141 50.05314453 -8.44714844 50.97933594 -8.5859375 51.93359375 C-8.72451172 52.89458984 -8.86308594 53.85558594 -9.00585938 54.84570312 C-9.34375802 57.1876903 -9.68297285 59.52947848 -10.0234375 61.87109375 C-8.3734375 61.87109375 -6.7234375 61.87109375 -5.0234375 61.87109375 C-3.85951375 66.13881415 -3.91126062 69.58126864 -5.0234375 73.87109375 C-8.80839929 76.84253006 -11.84056227 77.30309505 -16.5859375 77.30859375 C-18.25849609 77.33759766 -18.25849609 77.33759766 -19.96484375 77.3671875 C-23.63272269 76.77226972 -24.75108671 75.74227581 -27.0234375 72.87109375 C-28.21398008 70.49000858 -28.19015565 68.9645148 -28.2109375 66.30859375 C-28.22511719 65.50292969 -28.23929688 64.69726562 -28.25390625 63.8671875 C-28.00016254 60.56851928 -27.31748636 57.53232201 -26.56469727 54.31713867 C-25.64909778 50.1793889 -25.0352681 45.99672967 -24.3984375 41.80859375 C-24.264375 40.94298828 -24.1303125 40.07738281 -23.9921875 39.18554688 C-23.66664297 37.08113401 -23.34465982 34.9761707 -23.0234375 32.87109375 C-19.0634375 32.87109375 -15.1034375 32.87109375 -11.0234375 32.87109375 C-11.0234375 32.21109375 -11.0234375 31.55109375 -11.0234375 30.87109375 C-12.0340625 30.82984375 -13.0446875 30.78859375 -14.0859375 30.74609375 C-18.072049 30.1290989 -20.69770296 28.6158799 -23.63671875 25.875 C-27.07279314 20.90963052 -26.30132305 14.75454024 -25.4609375 9.05859375 C-23.05941231 3.73347267 -20.07177873 0.75999655 -14.7109375 -1.56640625 C-9.44646518 -2.36946135 -4.77740913 -2.66538849 0 0 Z " fill="#7061E4" transform="translate(548.0234375,168.12890625)"/>
<path d="M0 0 C2.92157211 2.33725769 3.81576138 3.44728413 5 7 C5.11979145 8.95566503 5.17528496 10.91570766 5.1875 12.875 C5.20167969 13.90367187 5.21585937 14.93234375 5.23046875 15.9921875 C5 19 5 19 3 24 C-5.25 24 -13.5 24 -22 24 C-21.67 25.65 -21.34 27.3 -21 29 C-18.56282742 28.72965366 -18.56282742 28.72965366 -16 28 C-15.34 27.01 -14.68 26.02 -14 25 C-11.37302936 24.77862607 -8.99106036 24.71837975 -6.375 24.8125 C-5.66859375 24.82603516 -4.9621875 24.83957031 -4.234375 24.85351562 C-2.48925872 24.8888896 -0.74453392 24.94269779 1 25 C2.36626724 29.09880173 1.21759599 30.96860512 -0.5546875 34.7734375 C-3.48282505 39.28435211 -8.02770268 41.34256756 -13 43 C-15.76371005 43.1490798 -18.4856242 43.23109829 -21.25 43.25 C-21.98863281 43.270625 -22.72726562 43.29125 -23.48828125 43.3125 C-29.51319069 43.35500377 -34.23485632 42.42655466 -38.9140625 38.3203125 C-40.51664367 34.89609229 -40.44457005 31.5787964 -40.375 27.875 C-40.36194824 26.73647583 -40.36194824 26.73647583 -40.34863281 25.57495117 C-40.13413046 17.32979708 -38.7022787 9.2871278 -33 3 C-22.52075762 -3.43799866 -11.43622689 -5.5080603 0 0 Z M-19.25 11.3125 C-19.8275 11.869375 -20.405 12.42625 -21 13 C-21 13.66 -21 14.32 -21 15 C-18.03 15 -15.06 15 -12 15 C-12.33 13.68 -12.66 12.36 -13 11 C-15.78313821 9.90662428 -16.59946354 9.76635373 -19.25 11.3125 Z " fill="#7060E4" transform="translate(368,202)"/>
<path d="M0 0 C2.87778844 2.70337702 4.45289138 5.06118433 5.0625 8.9375 C4.77424423 12.26515855 4.23100768 15.475904 3.61328125 18.7578125 C2.95121202 22.57997103 2.91093906 26.07269595 3.0625 29.9375 C4.7125 30.2675 6.3625 30.5975 8.0625 30.9375 C7.87476497 40.98985754 7.87476497 40.98985754 5.1875 44.125 C-0.58792038 45.6266093 -6.41948963 45.96525933 -12 43.6875 C-14.16889484 41.72849821 -15.10345879 40.74291135 -15.9375 37.9375 C-16.10115175 32.33091216 -15.69798465 26.98698257 -14.9375 21.4375 C-14.79441406 20.34695312 -14.79441406 20.34695312 -14.6484375 19.234375 C-14.41603833 17.46814133 -14.17743362 15.70272594 -13.9375 13.9375 C-16.92817866 14.45912088 -16.92817866 14.45912088 -19.9375 15.9375 C-21.31557885 18.78119601 -21.31557885 18.78119601 -21.8359375 22.2578125 C-22.08730469 23.51464844 -22.33867187 24.77148438 -22.59765625 26.06640625 C-22.83651847 27.39833344 -23.07479224 28.73036629 -23.3125 30.0625 C-23.57176047 31.4028216 -23.83345186 32.74267543 -24.09765625 34.08203125 C-24.73489384 37.36262475 -25.33930755 40.64956276 -25.9375 43.9375 C-30.8875 43.9375 -35.8375 43.9375 -40.9375 43.9375 C-42.3636492 41.0852016 -41.4853555 39.57017927 -40.6875 36.5 C-39.29499079 30.7773594 -38.25860553 25.07207397 -37.375 19.25 C-36.39053793 12.77061266 -35.30407611 6.34989557 -33.9375 -0.0625 C-27.9375 -0.0625 -21.9375 -0.0625 -15.9375 -0.0625 C-10.72894989 -1.79868337 -5.1761952 -1.87224082 0 0 Z " fill="#6D5DE5" transform="translate(415.9375,200.0625)"/>
<path d="M0 0 C3.6881267 3.25727078 4.89537934 6.0584141 5.4375 10.9375 C5 15 5 15 3 23 C-4.92 23.33 -12.84 23.66 -21 24 C-21.33 25.65 -21.66 27.3 -22 29 C-20.02 29 -18.04 29 -16 29 C-15.34 27.68 -14.68 26.36 -14 25 C-11.70839681 24.97307516 -9.41670454 24.95363876 -7.125 24.9375 C-5.84882813 24.92589844 -4.57265625 24.91429687 -3.2578125 24.90234375 C0 25 0 25 2 26 C0.39375424 32.8839104 -1.90688341 37.20734579 -8 41 C-14.48215539 44.327124 -22.88028687 43.91437712 -30 43 C-34.11228439 41.57038313 -36.9031206 39.80985101 -39.171875 36.06640625 C-42.27985898 28.31110659 -39.23182887 17.63032815 -37 10 C-33.97051094 3.71451802 -29.49568696 0.32740201 -23 -2 C-15.52839601 -4.23099999 -6.87414578 -3.81596281 0 0 Z M-17 10 C-19.23024131 11.23513282 -19.23024131 11.23513282 -21 13 C-21 13.66 -21 14.32 -21 15 C-18.03 15 -15.06 15 -12 15 C-12.66 13.68 -13.32 12.36 -14 11 C-14.99 10.67 -15.98 10.34 -17 10 Z " fill="#6F60E4" transform="translate(466,202)"/>
<path d="M0 0 C1.10794922 -0.0309375 1.10794922 -0.0309375 2.23828125 -0.0625 C8.83339756 -0.10902639 13.21525402 1.56016934 18.75 5.25 C19.33203125 7.52734375 19.33203125 7.52734375 19.5625 10.1875 C19.65144531 11.06277344 19.74039063 11.93804687 19.83203125 12.83984375 C19.75 15.25 19.75 15.25 17.75 18.25 C15.3671875 18.76171875 15.3671875 18.76171875 12.625 18.9375 C11.25988281 19.03611328 11.25988281 19.03611328 9.8671875 19.13671875 C9.16851563 19.17410156 8.46984375 19.21148437 7.75 19.25 C8.86375 19.8275 9.9775 20.405 11.125 21 C13.27901472 22.24889338 14.63081885 23.09972812 16.1875 25.0625 C17.42839635 29.88820801 17.12835485 33.31987765 15.25 37.9375 C12.2852168 42.6326193 7.62734337 44.52947123 2.39453125 45.83984375 C-4.99812682 46.98641553 -13.3101644 47.28617807 -20.25 44.25 C-23.09855588 42.14454566 -24.89982718 40.64809739 -25.77734375 37.14453125 C-26.02992385 35.18963051 -26.14990133 33.21860709 -26.25 31.25 C-22.42679443 29.82741188 -19.33718695 29.00957724 -15.25 29.25 C-15.25 28.59 -15.25 27.93 -15.25 27.25 C-16.03375 27.023125 -16.8175 26.79625 -17.625 26.5625 C-20.25 25.25 -20.25 25.25 -21.625 23.25 C-22.79503987 17.63380863 -22.42090171 11.16644695 -19.25 6.25 C-17.41015625 4.80078125 -17.41015625 4.80078125 -15.3125 3.5625 C-14.27802734 2.93794922 -14.27802734 2.93794922 -13.22265625 2.30078125 C-8.89053172 -0.00682568 -4.7841587 0.0327122 0 0 Z M-4.25 13.25 C-4.91 14.57 -5.57 15.89 -6.25 17.25 C-3.28 17.58 -0.31 17.91 2.75 18.25 C2.42 16.6 2.09 14.95 1.75 13.25 C-0.23 13.25 -2.21 13.25 -4.25 13.25 Z M-9.25 29.25 C-8.92 30.24 -8.59 31.23 -8.25 32.25 C-5.30610218 33.42755913 -4.35046087 33.28348696 -1.25 32.25 C-1.58 31.26 -1.91 30.27 -2.25 29.25 C-4.56 29.25 -6.87 29.25 -9.25 29.25 Z " fill="#6D5DE4" transform="translate(571.25,198.75)"/>
<path d="M0 0 C2.59549635 2.13530196 3.43509377 3.60481107 3.8125 6.9375 C3.90144531 7.60652344 3.99039063 8.27554688 4.08203125 8.96484375 C3.97850405 11.53330441 3.51265273 12.91499219 2 15 C-0.1640625 15.609375 -0.1640625 15.609375 -2.625 15.75 C-3.44226563 15.80671875 -4.25953125 15.8634375 -5.1015625 15.921875 C-5.72804688 15.94765625 -6.35453125 15.9734375 -7 16 C-6.030625 16.78375 -5.06125 17.5675 -4.0625 18.375 C-2.16037654 19.91288705 -1.10370043 20.79259913 0 23 C0.12148305 24.62165752 0.17543652 26.24884327 0.1875 27.875 C0.20167969 28.73867187 0.21585938 29.60234375 0.23046875 30.4921875 C-0.02144218 33.23332004 -0.4538983 34.72886303 -2 37 C-3.98828125 38.44921875 -3.98828125 38.44921875 -6.3125 39.6875 C-7.07175781 40.10386719 -7.83101563 40.52023438 -8.61328125 40.94921875 C-17.06920739 44.67204057 -27.65019162 43.9964411 -36.1953125 40.94921875 C-38.29171698 39.84656444 -39.54994183 38.88115655 -41 37 C-41.51171875 34.73828125 -41.51171875 34.73828125 -41.6875 32.3125 C-41.75324219 31.50425781 -41.81898438 30.69601563 -41.88671875 29.86328125 C-41.92410156 29.24839844 -41.96148437 28.63351563 -42 28 C-38.66688525 26.2175082 -35.75519057 25.51207144 -32 25 C-32.804375 24.195625 -33.60875 23.39125 -34.4375 22.5625 C-38.16894977 18.83105023 -38.16894977 18.83105023 -38.25 14.3125 C-38.17219677 9.76101119 -37.78961247 6.74854176 -35 3 C-25.21331685 -4.64649554 -11.0588683 -5.7421047 0 0 Z M-20 10 C-20.66 11.32 -21.32 12.64 -22 14 C-19.03 14.33 -16.06 14.66 -13 15 C-13.33 13.35 -13.66 11.7 -14 10 C-15.98 10 -17.96 10 -20 10 Z M-25 26 C-24.67 26.99 -24.34 27.98 -24 29 C-20.8033 30.37001429 -18.30096158 29.8252404 -15 29 C-15 28.34 -15 27.68 -15 27 C-18.47325181 25.8422494 -21.36067448 25.93133348 -25 26 Z " fill="#7061E3" transform="translate(514,202)"/>
<path d="M0 0 C1.55074219 -0.00386719 1.55074219 -0.00386719 3.1328125 -0.0078125 C5.875 0.125 5.875 0.125 8.875 1.125 C8.875 1.785 8.875 2.445 8.875 3.125 C9.473125 3.3725 10.07125 3.62 10.6875 3.875 C15.31662993 6.5202171 16.8470361 10.78825544 18.359375 15.6953125 C19.5928061 21.50738934 18.63806694 26.2928333 15.625 31.375 C12.51407376 35.83695706 9.74387117 39.33432374 4.625 41.5 C-2.54696385 42.69532731 -8.68513119 41.59262167 -15.125 38.125 C-19.63320331 34.33401085 -22.62720027 30.59318714 -23.48046875 24.6484375 C-23.8532159 17.49572201 -22.32043599 11.96075682 -18.125 6.125 C-12.74561828 0.79463315 -7.41889197 -0.01859371 0 0 Z M4.875 6.125 C4.215 6.785 3.555 7.445 2.875 8.125 C3.1935177 10.23320797 3.1935177 10.23320797 3.875 12.125 C5.195 11.465 6.515 10.805 7.875 10.125 C7.215 8.805 6.555 7.485 5.875 6.125 C5.545 6.125 5.215 6.125 4.875 6.125 Z " fill="#7060E5" transform="translate(258.125,109.875)"/>
<path d="M0 0 C0.33 0.66 0.66 1.32 1 2 C1.7425 1.814375 2.485 1.62875 3.25 1.4375 C6 1 6 1 8.1875 1.5625 C8.785625 1.706875 9.38375 1.85125 10 2 C10.66 1.34 11.32 0.68 12 0 C12.33 0.33 12.66 0.66 13 1 C15.4834257 1.24427138 17.96567293 1.38359759 20.45703125 1.5234375 C23.47189268 2.08843457 24.81939451 2.85250565 27 5 C29.22647739 8.98710721 29.11506585 12.1432857 28.6875 16.625 C28.58824219 17.75164062 28.48898437 18.87828125 28.38671875 20.0390625 C28 23 28 23 27 26 C26.34 26 25.68 26 25 26 C25 27.65 25 29.3 25 31 C23.68 31.33 22.36 31.66 21 32 C21 32.66 21 33.32 21 34 C17.73386305 35.91302307 15.00554752 36.35674661 11.25 36.625 C10.26515625 36.69976562 9.2803125 36.77453125 8.265625 36.8515625 C7.51796875 36.90054688 6.7703125 36.94953125 6 37 C4.44380615 41.33511143 3.37763063 45.64094637 2.46484375 50.14453125 C2 52 2 52 1 53 C-0.83115883 53.09851171 -2.66619933 53.12972629 -4.5 53.125 C-5.5003125 53.12757813 -6.500625 53.13015625 -7.53125 53.1328125 C-10 53 -10 53 -11 52 C-11.34343027 45.70377832 -10.36175262 40.12788678 -9 34 C-8.66218104 32.35508152 -8.32882601 30.70923979 -8 29.0625 C-7.835 28.23878906 -7.67 27.41507813 -7.5 26.56640625 C-6.79958291 22.97129667 -6.15576382 19.36659078 -5.5078125 15.76171875 C-4.72370543 11.49738259 -3.86624873 7.24830496 -3 3 C-2.01 2.67 -1.02 2.34 0 2 C0 1.34 0 0.68 0 0 Z M9 13 C7.52952664 16.91063224 7.52952664 16.91063224 7 21 C7.66 21 8.32 21 9 21 C8.67 22.32 8.34 23.64 8 25 C9.32 25 10.64 25 12 25 C12.66 21.37 13.32 17.74 14 14 C12.35 13.67 10.7 13.34 9 13 Z M26 21 C27 23 27 23 27 23 Z " fill="#12120F" transform="translate(372,140)"/>
<path d="M0 0 C2.03945768 2.96131781 2.27163186 5.45237442 2.25 9 C2.25773437 10.2684375 2.25773437 10.2684375 2.265625 11.5625 C1.98250804 14.16051443 1.17861139 15.69867973 0 18 C-0.020625 19.27875 -0.04125 20.5575 -0.0625 21.875 C-0.36710784 24.63712193 -0.77051309 25.75125545 -2.67578125 27.81640625 C-9.69886944 32.99328298 -16.48849011 33.2148338 -24.9375 32.8125 C-28.62454613 31.83430409 -29.86273769 31.16631453 -32 28 C-34.06483587 22.37251986 -34.24991698 18.62479245 -32 13 C-32.020625 11.9275 -32.04125 10.855 -32.0625 9.75 C-32.041875 8.8425 -32.02125 7.935 -32 7 C-31.01 6.34 -30.02 5.68 -29 5 C-28.505 4.154375 -28.01 3.30875 -27.5 2.4375 C-26 0 -26 0 -23 -1 C-22.34 -1.66 -21.68 -2.32 -21 -3 C-13.56167421 -4.83375393 -6.50285234 -4.2376709 0 0 Z M-15 8 C-14.67 8.99 -14.34 9.98 -14 11 C-13.34 10.01 -12.68 9.02 -12 8 C-12.99 8 -13.98 8 -15 8 Z M-12 9 C-11 11 -11 11 -11 11 Z M-19 17 C-18.67 17.99 -18.34 18.98 -18 20 C-18 19.01 -18 18.02 -18 17 C-18.33 17 -18.66 17 -19 17 Z M-17 17 C-17 18.65 -17 20.3 -17 22 C-16.34 22 -15.68 22 -15 22 C-14.67 20.68 -14.34 19.36 -14 18 C-14.99 17.67 -15.98 17.34 -17 17 Z " fill="#141512" transform="translate(434,144)"/>
<path d="M0 0 C-0.33 2.64 -0.66 5.28 -1 8 C4.61 8.33 10.22 8.66 16 9 C15.67 12.63 15.34 16.26 15 20 C8.73 20 2.46 20 -4 20 C-4 22.97 -4 25.94 -4 29 C-2.68 29.33 -1.36 29.66 0 30 C0.66 28.02 1.32 26.04 2 24 C5.63 24 9.26 24 13 24 C14.43968406 26.87936812 14.302823 28.79007619 14 32 C11.88010055 36.91816672 9.95507039 39.81714459 4.984375 42.28125 C-1.40570661 44.59576775 -7.69246619 44.48598817 -14 42 C-16.31844988 40.83335998 -17.96885093 39.67569799 -20 38 C-20 37.01 -20 36.02 -20 35 C-19.34 35 -18.68 35 -18 35 C-18.04640625 34.44957031 -18.0928125 33.89914063 -18.140625 33.33203125 C-18.58835908 23.01815691 -16.1021185 13.03677723 -14 3 C-13.01 3 -12.02 3 -11 3 C-10.67 2.34 -10.34 1.68 -10 1 C-6.28098293 -0.96281457 -4.02784093 -1.15081169 0 0 Z " fill="#171715" transform="translate(490,133)"/>
<path d="M0 0 C0 0.66 0 1.32 0 2 C1.98 2 3.96 2 6 2 C6 2.66 6 3.32 6 4 C6.99 4 7.98 4 9 4 C9 5.32 9 6.64 9 8 C9.66 8 10.32 8 11 8 C11.7790224 15.94602851 11.7790224 15.94602851 8.875 19.875 C-0.0073597 26.44022239 -9.55971157 27.11688909 -20.33203125 25.69140625 C-23.03372296 25.04868801 -24.66039117 24.46898362 -26.3125 22.1875 C-26.539375 21.465625 -26.76625 20.74375 -27 20 C-27.37125 19.175 -27.7425 18.35 -28.125 17.5 C-29 15 -29 15 -29 11 C-22.08584456 9.5817117 -15.50090947 8.94074849 -9 12 C-8.01 12 -7.02 12 -6 12 C-6.33 11.34 -6.66 10.68 -7 10 C-9.32156597 9.59270772 -11.6568787 9.25561323 -14 9 C-13.360625 8.773125 -12.72125 8.54625 -12.0625 8.3125 C-11.381875 7.879375 -10.70125 7.44625 -10 7 C-9.855625 6.175 -9.71125 5.35 -9.5625 4.5 C-9.376875 3.675 -9.19125 2.85 -9 2 C-5.72271751 0.13992075 -3.8340246 0 0 0 Z " fill="#6E5EE4" transform="translate(576,219)"/>
<path d="M0 0 C4.73813961 0.49212561 8.59341048 0.43561053 13.25 -0.4375 C17.25 -0.4375 17.25 -0.4375 18.9375 1.125 C21.01380205 4.98098953 21.81974738 8.49036144 20.63671875 12.79296875 C19.90859562 14.74268234 19.08595266 16.65652794 18.25 18.5625 C16.62509046 18.58948189 15.00005367 18.60888757 13.375 18.625 C12.01761719 18.64240234 12.01761719 18.64240234 10.6328125 18.66015625 C8.25 18.5625 8.25 18.5625 6.25 17.5625 C6.25 15.9125 6.25 14.2625 6.25 12.5625 C4.93 12.5625 3.61 12.5625 2.25 12.5625 C2.311875 13.8 2.37375 15.0375 2.4375 16.3125 C2.4375 22.1932071 1.4117786 28.08243573 -0.75 33.5625 C-4.64164348 34.85971449 -7.64429226 34.69283993 -11.75 34.5625 C-12.41 34.2325 -13.07 33.9025 -13.75 33.5625 C-13.10962882 29.03923722 -12.45212962 24.51892758 -11.77856445 20.00048828 C-11.55181814 18.46276846 -11.32978443 16.92434611 -11.11254883 15.38525391 C-10.79962171 13.17409233 -10.46987918 10.96600428 -10.13671875 8.7578125 C-10.04283371 8.06817413 -9.94894867 7.37853577 -9.85221863 6.66799927 C-9.54956055 4.72705078 -9.54956055 4.72705078 -8.75 1.5625 C-5.15795305 -0.83219797 -4.16388345 -0.51255926 0 0 Z " fill="#171714" transform="translate(449.75,141.4375)"/>
<path d="M0 0 C3.21796733 2.15412187 6.25011373 4.50022746 8 8 C8.63936472 12.56689088 8.79979531 16.63674721 5.9375 20.4375 C2.50545602 23.4314107 0.52498996 24.46313678 -4 25 C-8.61455282 24.23090786 -11.34937563 22.7156868 -14.5 19.25 C-16.29735754 15.35572532 -16.67009583 13.24394025 -16 9 C-14.17455679 5.30422564 -12.12595621 2.66402545 -8.5625 0.5625 C-5.37863085 -0.13639811 -3.25559558 -0.52089529 0 0 Z " fill="#6D5DE6" transform="translate(96,127)"/>
<path d="M0 0 C3.00277575 2.33549225 4.98312555 4.29300973 5.68359375 8.1171875 C5.6901392 12.31936927 5.42670472 15.31976243 3.8125 19.25 C0.29185536 22.68477525 -2.86390989 23.63464543 -7.75 23.75 C-11.52694185 23.03955796 -14.07520671 21.49009586 -16.6875 18.625 C-18.18388254 14.57596488 -18.43302415 11.01327161 -17.75 6.75 C-16.12854397 3.56499709 -14.77671736 1.52888904 -11.9375 -0.625 C-7.65437443 -1.84875016 -4.06770435 -1.84895652 0 0 Z " fill="#705FE5" transform="translate(92.75,223.25)"/>
<path d="M0 0 C0.88558594 -0.01095703 1.77117187 -0.02191406 2.68359375 -0.03320312 C8.24270357 0.02893298 11.8563357 0.65756433 16.125 4.5625 C17.33197177 7.41828142 17.125 9.37612995 17.125 12.5625 C12.15470359 17.53279641 7.82915976 16.92899051 1.1875 16.9375 C0.18525391 16.96199219 -0.81699219 16.98648438 -1.84960938 17.01171875 C-9.17116589 17.04102451 -9.17116589 17.04102451 -12.53515625 14.75390625 C-14.52618239 11.49744659 -14.4001186 9.30397004 -13.875 5.5625 C-10.59703371 -0.66744698 -6.33978032 -0.16924377 0 0 Z " fill="#161614" transform="translate(105.875,153.4375)"/>
<path d="M0 0 C1.02222656 0.01804688 2.04445313 0.03609375 3.09765625 0.0546875 C5.60774749 0.10160509 8.11587764 0.16723271 10.625 0.25 C12.55378092 3.80140614 12.96464372 6.17427539 12.625 10.25 C11.225 13.95 11.225 13.95 8.625 15.25 C5.1941548 15.54259649 1.75437345 15.52791989 -1.6875 15.5625 C-2.63818359 15.59150391 -3.58886719 15.62050781 -4.56835938 15.65039062 C-8.95727324 15.69026196 -11.63714396 15.67518954 -15.5 13.44921875 C-17.375 11.25 -17.375 11.25 -18.0625 7.75 C-17.375 4.25 -17.375 4.25 -15.04296875 2.046875 C-10.41739035 -0.80259681 -5.2463308 -0.17600594 0 0 Z " fill="#131311" transform="translate(124.375,229.75)"/>
<path d="M0 0 C3.55620937 4.19124676 3.26604993 7.76768467 3 13 C-1.7662209 15.45147837 -6.27057921 15.33252075 -11.5 15.3125 C-12.34175781 15.32861328 -13.18351563 15.34472656 -14.05078125 15.36132812 C-18.84242654 15.36510107 -22.13192975 15.15431919 -26 12 C-27.3729863 9.2540274 -27.12412634 7.0410953 -27 4 C-26.67 3.01 -26.34 2.02 -26 1 C-18.20505063 -1.46840063 -7.87549402 -2.82160557 0 0 Z " fill="#191916" transform="translate(143,130)"/>
<path d="M0 0 C0 0.66 0 1.32 0 2 C1.3921875 1.87625 1.3921875 1.87625 2.8125 1.75 C6 2 6 2 7.75 3.5625 C10.89988808 9.70478175 11.25672229 14.37364611 10 21 C8.22808941 22.77191059 5.62367341 22.36060338 3.21484375 22.53515625 C2.04501953 22.62216797 0.87519531 22.70917969 -0.33007812 22.79882812 C-1.56177734 22.88583984 -2.79347656 22.97285156 -4.0625 23.0625 C-5.29806641 23.15337891 -6.53363281 23.24425781 -7.80664062 23.33789062 C-10.87081994 23.56267598 -13.93524802 23.7831856 -17 24 C-17 25.65 -17 27.3 -17 29 C-17.33 29 -17.66 29 -18 29 C-18.125 23.25 -18.125 23.25 -17 21 C-16.95977609 18.6670134 -16.95679753 16.33293334 -17 14 C-16.67 14.99 -16.34 15.98 -16 17 C-15.37351562 16.98839844 -14.74703125 16.97679687 -14.1015625 16.96484375 C-13.28429687 16.95582031 -12.46703125 16.94679687 -11.625 16.9375 C-10.81289063 16.92589844 -10.00078125 16.91429687 -9.1640625 16.90234375 C-7 17 -7 17 -5 18 C-5 16.02 -5 14.04 -5 12 C-4.34 12 -3.68 12 -3 12 C-2.67 11.01 -2.34 10.02 -2 9 C-2.99 9.495 -2.99 9.495 -4 10 C-5.99960012 10.039992 -8.00047242 10.04346799 -10 10 C-9.51171875 3.9453125 -9.51171875 3.9453125 -9 2 C-5.5647952 -0.29013653 -4.014669 -0.17842973 0 0 Z " fill="#6C5BE3" transform="translate(361,201)"/>
<path d="M0 0 C3.72901814 -0.08736736 7.45777165 -0.14051482 11.1875 -0.1875 C12.24259766 -0.21263672 13.29769531 -0.23777344 14.38476562 -0.26367188 C15.91713867 -0.27817383 15.91713867 -0.27817383 17.48046875 -0.29296875 C18.41785889 -0.3086792 19.35524902 -0.32438965 20.32104492 -0.34057617 C23.53631098 0.06818134 25.40629723 1.08483691 28 3 C28.59375 5.19140625 28.59375 5.19140625 28.5 7.5625 C28.4896875 8.34753906 28.479375 9.13257813 28.46875 9.94140625 C28 12 28 12 25 14 C16.643902 15.6712196 7.10478705 16.00062727 -1 13 C-3.12786425 10.08403788 -3.09682823 8.72621174 -2.625 5.1875 C-2.41875 4.465625 -2.2125 3.74375 -2 3 C-1.34 3 -0.68 3 0 3 C0 2.01 0 1.02 0 0 Z " fill="#151512" transform="translate(113,180)"/>
<path d="M0 0 C0.44524767 1.40794534 0.85525172 2.82707015 1.25 4.25 C1.48203125 5.03890625 1.7140625 5.8278125 1.953125 6.640625 C2 9 2 9 0.5625 11.2421875 C-2.92315583 13.63326239 -6.15309275 13.74674899 -10.25 13.875 C-10.97574219 13.92140625 -11.70148438 13.9678125 -12.44921875 14.015625 C-17.66063004 14.25715208 -22.0263437 13.60262259 -27 12 C-28.55774936 8.88450128 -28.56480622 5.3955612 -28 2 C-26.47062534 0.09121826 -25.51700713 -0.87249214 -23.11816406 -1.46411133 C-22.42432617 -1.5030249 -21.73048828 -1.54193848 -21.015625 -1.58203125 C-19.85933594 -1.64874023 -19.85933594 -1.64874023 -18.6796875 -1.71679688 C-17.47699219 -1.76416992 -17.47699219 -1.76416992 -16.25 -1.8125 C-15.46367188 -1.86341797 -14.67734375 -1.91433594 -13.8671875 -1.96679688 C-8.78635852 -2.21577437 -4.80816095 -1.66485787 0 0 Z " fill="#0F0F0C" transform="translate(116,206)"/>
<path d="M0 0 C0.90105469 0.00902344 1.80210937 0.01804688 2.73046875 0.02734375 C3.41753906 0.03894531 4.10460937 0.05054688 4.8125 0.0625 C5.3075 1.0525 5.3075 1.0525 5.8125 2.0625 C1.1925 2.3925 -3.4275 2.7225 -8.1875 3.0625 C-8.1875 3.7225 -8.1875 4.3825 -8.1875 5.0625 C-7.1975 5.3925 -6.2075 5.7225 -5.1875 6.0625 C-6.1875 8.0625 -6.1875 8.0625 -8.5625 9.3125 C-9.42875 9.56 -10.295 9.8075 -11.1875 10.0625 C-12.1775 9.4025 -13.1675 8.7425 -14.1875 8.0625 C-14.38919442 10.12420257 -14.38919442 10.12420257 -13 11.625 C-10.7754284 13.38931541 -8.96961944 13.68653791 -6.1875 14.0625 C-6.1875 14.3925 -6.1875 14.7225 -6.1875 15.0625 C-7.610625 15.2790625 -7.610625 15.2790625 -9.0625 15.5 C-12.31608568 16.69211751 -12.31608568 16.69211751 -13.03125 19.19921875 C-13.51921576 21.48476427 -13.91061292 23.7423772 -14.1875 26.0625 C-14.5175 26.0625 -14.8475 26.0625 -15.1875 26.0625 C-15.1875 22.4325 -15.1875 18.8025 -15.1875 15.0625 C-16.8375 15.0625 -18.4875 15.0625 -20.1875 15.0625 C-20.1875 14.4025 -20.1875 13.7425 -20.1875 13.0625 C-20.8475 13.0625 -21.5075 13.0625 -22.1875 13.0625 C-22.1875 14.3825 -22.1875 15.7025 -22.1875 17.0625 C-23.1775 16.7325 -24.1675 16.4025 -25.1875 16.0625 C-25.8475 16.7225 -26.5075 17.3825 -27.1875 18.0625 C-28.51278788 11.96617577 -27.65369907 7.08482181 -26.1875 1.0625 C-20.1875 1.0625 -14.1875 1.0625 -8.1875 1.0625 C-5.17259443 0.05753148 -3.14568308 -0.04085303 0 0 Z " fill="#7567DE" transform="translate(408.1875,198.9375)"/>
<path d="M0 0 C2.92157211 2.33725769 3.81576138 3.44728413 5 7 C5.11979145 8.95566503 5.17528496 10.91570766 5.1875 12.875 C5.20167969 13.90367187 5.21585937 14.93234375 5.23046875 15.9921875 C5 19 5 19 3 24 C-4.92 23.67 -12.84 23.34 -21 23 C-21 22.67 -21 22.34 -21 22 C-13.41 21.34 -5.82 20.68 2 20 C3.2364661 13.21409251 3.2364661 13.21409251 1.625 7.6875 C1.34914063 7.05199219 1.07328125 6.41648438 0.7890625 5.76171875 C0.39847656 4.88966797 0.39847656 4.88966797 0 4 C-0.495 2.515 -0.495 2.515 -1 1 C-2.98 1 -4.96 1 -7 1 C-7 0.34 -7 -0.32 -7 -1 C-9.64 -0.34 -12.28 0.32 -15 1 C-15.66 3.64 -16.32 6.28 -17 9 C-14.36 8.67 -11.72 8.34 -9 8 C-9 9.65 -9 11.3 -9 13 C-9.33 12.34 -9.66 11.68 -10 11 C-10.99 11.33 -11.98 11.66 -13 12 C-13.639375 11.773125 -14.27875 11.54625 -14.9375 11.3125 C-15.9584375 11.1578125 -15.9584375 11.1578125 -17 11 C-19.27144074 12.85432087 -19.27144074 12.85432087 -21 15 C-15.8306511 14.59443869 -15.8306511 14.59443869 -11 13 C-11 14.65 -11 16.3 -11 18 C-16.94 17.01 -16.94 17.01 -23 16 C-23 14.68 -23 13.36 -23 12 C-24.32 12.33 -25.64 12.66 -27 13 C-27 12.01 -27 11.02 -27 10 C-24.36 9.01 -21.72 8.02 -19 7 C-19 6.34 -19 5.68 -19 5 C-19.61875 4.855625 -20.2375 4.71125 -20.875 4.5625 C-23 4 -23 4 -25 3 C-26.68208635 3.97383946 -28.34738161 4.97695052 -30 6 C-32.3125 6.6875 -32.3125 6.6875 -34 7 C-34 7.66 -34 8.32 -34 9 C-34.66 9 -35.32 9 -36 9 C-35.10868831 5.10051134 -33.56069814 3.42351465 -30.3125 1.3125 C-20.70183508 -4.17437872 -10.03373357 -4.83257372 0 0 Z " fill="#6C5AE2" transform="translate(368,202)"/>
<path d="M0 0 C5.61 0 11.22 0 17 0 C17 1.32 17 2.64 17 4 C17.5775 3.79375 18.155 3.5875 18.75 3.375 C21 3 21 3 25 5 C25 7.97 25 10.94 25 14 C20.38 14 15.76 14 11 14 C11 13.34 11 12.68 11 12 C10.34 12 9.68 12 9 12 C9 11.34 9 10.68 9 10 C6.69 10 4.38 10 2 10 C1.67 8.35 1.34 6.7 1 5 C-0.65 5.33 -2.3 5.66 -4 6 C-3.34 4.68 -2.68 3.36 -2 2 C-1.34 2 -0.68 2 0 2 C0 1.34 0 0.68 0 0 Z " fill="#6C5BE5" transform="translate(564,201)"/>
<path d="M0 0 C1.10794922 -0.0309375 1.10794922 -0.0309375 2.23828125 -0.0625 C8.83339756 -0.10902639 13.21525402 1.56016934 18.75 5.25 C19.33203125 7.52734375 19.33203125 7.52734375 19.5625 10.1875 C19.65144531 11.06277344 19.74039063 11.93804687 19.83203125 12.83984375 C19.75 15.25 19.75 15.25 17.75 18.25 C15.75048828 18.79003906 15.75048828 18.79003906 13.3203125 19.015625 C12.44246094 19.10070312 11.56460938 19.18578125 10.66015625 19.2734375 C9.74105469 19.34820312 8.82195313 19.42296875 7.875 19.5 C6.96363281 19.59023437 6.05226563 19.68046875 5.11328125 19.7734375 C1.04841495 20.14242976 -2.30068036 20.44101084 -6.25 19.25 C-6.25 18.59 -6.25 17.93 -6.25 17.25 C-5.26 16.92 -4.27 16.59 -3.25 16.25 C-3.25 16.91 -3.25 17.57 -3.25 18.25 C-1.6 17.92 0.05 17.59 1.75 17.25 C1.75 16.26 1.75 15.27 1.75 14.25 C2.41 14.25 3.07 14.25 3.75 14.25 C3.75 14.91 3.75 15.57 3.75 16.25 C8.37 16.25 12.99 16.25 17.75 16.25 C17.75 13.28 17.75 10.31 17.75 7.25 C15.11 6.92 12.47 6.59 9.75 6.25 C9.42 5.26 9.09 4.27 8.75 3.25 C3.47 2.92 -1.81 2.59 -7.25 2.25 C-7.25 2.91 -7.25 3.57 -7.25 4.25 C-13.875 5.25 -13.875 5.25 -17.25 5.25 C-11.23344707 1.10526354 -7.21576859 0.04933859 0 0 Z " fill="#8A7FD6" transform="translate(571.25,198.75)"/>
<path d="M0 0 C0.66 0 1.32 0 2 0 C1.9278125 0.97839844 1.855625 1.95679688 1.78125 2.96484375 C1.2839369 9.98939129 0.87638412 16.9538946 1 24 C1.66 24 2.32 24 3 24 C3 24.99 3 25.98 3 27 C8.57830016 27.12469099 8.57830016 27.12469099 14 26 C14.103125 25.38125 14.20625 24.7625 14.3125 24.125 C15 22 15 22 18 20 C18.33 19.01 18.66 18.02 19 17 C18.01 16.67 17.02 16.34 16 16 C17.65 15.67 19.3 15.34 21 15 C22.86846191 18.73692382 21.9197573 23.03847392 21 27 C18.63174146 29.68402635 16.88958994 29.909171 13.3984375 30.265625 C8.26189655 30.45945673 4.00060924 30.61345351 0 27 C-3.47829044 22.52791229 -2.16422935 16.39736522 -1.546875 11.14453125 C-1.0661855 7.42446994 -0.54128824 3.71169076 0 0 Z " fill="#9084DC" transform="translate(402,215)"/>
<path d="M0 0 C0.33 0 0.66 0 1 0 C0.98839844 1.24136719 0.97679687 2.48273438 0.96484375 3.76171875 C0.95546132 5.40364432 0.9463616 7.04557153 0.9375 8.6875 C0.92912109 9.50412109 0.92074219 10.32074219 0.91210938 11.16210938 C0.89557949 15.24499084 0.96964902 19.01651707 2 23 C2.86625 22.5359375 2.86625 22.5359375 3.75 22.0625 C5.84294184 21.07416636 7.74535275 20.4831387 10 20 C10.08927756 23.21399233 9.8534403 25.9062789 9 29 C9 29.66 9 30.32 9 31 C9.60585938 30.98839844 10.21171875 30.97679687 10.8359375 30.96484375 C16.95924948 30.89890039 22.92093331 31.27568567 29 32 C29 32.33 29 32.66 29 33 C25.95778935 33.08132642 22.9177762 33.14065374 19.875 33.1875 C19.0190625 33.21263672 18.163125 33.23777344 17.28125 33.26367188 C11.31407796 33.33252386 6.94939404 32.69018363 2.35546875 28.5 C-2.21935775 22.62463754 -2.42429682 18.20317858 -2 11 C-1.46454821 7.30305458 -0.77785394 3.65313545 0 0 Z " fill="#8275D9" transform="translate(276,212)"/>
<path d="M0 0 C2.92157211 2.33725769 3.81576138 3.44728413 5 7 C5.11979145 8.95566503 5.17528496 10.91570766 5.1875 12.875 C5.20167969 13.90367187 5.21585937 14.93234375 5.23046875 15.9921875 C5 19 5 19 3 24 C-4.92 23.67 -12.84 23.34 -21 23 C-21 22.67 -21 22.34 -21 22 C-13.41 21.34 -5.82 20.68 2 20 C3.2364661 13.21409251 3.2364661 13.21409251 1.625 7.6875 C1.21121094 6.73423828 1.21121094 6.73423828 0.7890625 5.76171875 C0.39847656 4.88966797 0.39847656 4.88966797 0 4 C-0.33 3.01 -0.66 2.02 -1 1 C-2.98 1 -4.96 1 -7 1 C-7 0.34 -7 -0.32 -7 -1 C-9.41760876 -0.88573491 -11.83347218 -0.75900339 -14.25 -0.625 C-14.93191406 -0.5940625 -15.61382812 -0.563125 -16.31640625 -0.53125 C-20.09068528 -0.31138909 -22.67278984 0.30695058 -26 2 C-28.25 1.625 -28.25 1.625 -30 1 C-19.61961701 -3.42054333 -10.4957594 -5.05510045 0 0 Z " fill="#9C93D3" transform="translate(368,202)"/>
<path d="M0 0 C2.86796607 2.59042097 4.40621071 4.17039266 5 8 C4.94034267 10.04461947 4.81018993 12.08791079 4.625 14.125 C4.53476562 15.17945313 4.44453125 16.23390625 4.3515625 17.3203125 C4 20 4 20 3 22 C1.92516357 22.029729 1.92516357 22.029729 0.82861328 22.06005859 C-2.4063063 22.15509519 -5.64056094 22.26486019 -8.875 22.375 C-10.56689453 22.42140625 -10.56689453 22.42140625 -12.29296875 22.46875 C-13.36933594 22.50742188 -14.44570313 22.54609375 -15.5546875 22.5859375 C-16.54968262 22.6173584 -17.54467773 22.6487793 -18.56982422 22.68115234 C-21.17854517 22.77247083 -21.17854517 22.77247083 -23 25 C-23 23.68 -23 22.36 -23 21 C-20.59458071 19.79729036 -18.89633409 19.79683337 -16.2109375 19.68359375 C-15.26992188 19.64169922 -14.32890625 19.59980469 -13.359375 19.55664062 C-12.37453125 19.51732422 -11.3896875 19.47800781 -10.375 19.4375 C-9.38242187 19.39431641 -8.38984375 19.35113281 -7.3671875 19.30664062 C-4.91160162 19.20038931 -2.45591297 19.09835036 0 19 C-0.0309375 17.2984375 -0.0309375 17.2984375 -0.0625 15.5625 C0 12 0 12 1 11 C1.14475933 7.1638778 1.17661508 3.67692213 0 0 Z " fill="#6F63D5" transform="translate(466,203)"/>
<path d="M0 0 C0.66 0.66 1.32 1.32 2 2 C-0.31 2 -2.62 2 -5 2 C-4.67 3.65 -4.34 5.3 -4 7 C-9.625 9.125 -9.625 9.125 -13 8 C-12.34 12.29 -11.68 16.58 -11 21 C-9.68 21.33 -8.36 21.66 -7 22 C-8.32 22.33 -9.64 22.66 -11 23 C-15.08439429 17.99332313 -16.65184219 15.62706224 -16 9 C-14.20909993 5.29930194 -12.11136855 2.65542248 -8.5625 0.5625 C-5.58773007 -0.09049828 -3.03561033 -0.26983203 0 0 Z " fill="#867AD8" transform="translate(96,127)"/>
<path d="M0 0 C1.125 7.625 1.125 7.625 0 11 C-1.45823212 11.0270043 -2.91660675 11.04639787 -4.375 11.0625 C-5.18710937 11.07410156 -5.99921875 11.08570313 -6.8359375 11.09765625 C-9 11 -9 11 -11 10 C-10.979375 9.21625 -10.95875 8.4325 -10.9375 7.625 C-10.81315937 5.01885039 -10.81315937 5.01885039 -12 3 C-10.68 3 -9.36 3 -8 3 C-7.67 2.34 -7.34 1.68 -7 1 C-6.67 1.33 -6.34 1.66 -6 2 C-5.38125 1.67 -4.7625 1.34 -4.125 1 C-2 0 -2 0 0 0 Z " fill="#6C5CE2" transform="translate(515,205)"/>
<path d="M0 0 C5.78275862 4.44827586 5.78275862 4.44827586 6.2734375 7.953125 C6.45390385 12.03444083 6.45963229 15.08843909 3.9375 18.4375 C0.59881056 21.34997377 -1.62934623 22.36426854 -6 23 C-8.4375 22.125 -8.4375 22.125 -10 21 C-9.38125 20.7525 -8.7625 20.505 -8.125 20.25 C-5.85708859 19.18539778 -5.85708859 19.18539778 -5.0625 17 C-3.60163333 14.25013332 -1.88694538 13.91166696 1 13 C1.33 13.33 1.66 13.66 2 14 C3.81975482 8.87160006 1.8599099 4.82315618 0 0 Z " fill="#6E5FE0" transform="translate(98,129)"/>
<path d="M0 0 C2.29160319 -0.02692484 4.58329546 -0.04636124 6.875 -0.0625 C8.15117187 -0.07410156 9.42734375 -0.08570313 10.7421875 -0.09765625 C14 0 14 0 16 1 C14.35530213 8.04870515 11.94568272 11.84616687 6 16 C5.34 15.67 4.68 15.34 4 15 C4.33 14.34 4.66 13.68 5 13 C5.99 13 6.98 13 8 13 C8 12.34 8 11.68 8 11 C7.34 10.67 6.68 10.34 6 10 C10.75 7 10.75 7 13 7 C13 5.68 13 4.36 13 3 C12.443125 3.515625 11.88625 4.03125 11.3125 4.5625 C9 6 9 6 6.25 5.6875 C5.5075 5.460625 4.765 5.23375 4 5 C4.33 4.34 4.66 3.68 5 3 C3.68 3 2.36 3 1 3 C1 3.66 1 4.32 1 5 C0.01 4.67 -0.98 4.34 -2 4 C-1.34 2.68 -0.68 1.36 0 0 Z " fill="#9285DD" transform="translate(452,227)"/>
<path d="M0 0 C-0.66 0 -1.32 0 -2 0 C-2 0.66 -2 1.32 -2 2 C-3.64429829 3.68873879 -5.31384218 5.35305515 -7 7 C-9.66180946 10.03876306 -9.66180946 10.03876306 -10 14 C-10.66 14 -11.32 14 -12 14 C-11.1216227 18.56756196 -10.614517 20.52067674 -6.875 23.4375 C-5.92625 23.953125 -4.9775 24.46875 -4 25 C-5.6875 25.8125 -5.6875 25.8125 -8 26 C-10.6875 23.625 -10.6875 23.625 -13 21 C-13.33 20.67 -13.66 20.34 -14 20 C-14.57505398 14.12781417 -14.62930568 8.87687951 -11 4 C-4.26007326 -1.42002442 -4.26007326 -1.42002442 0 0 Z " fill="#897DD4" transform="translate(490,201)"/>
<path d="M0 0 C0.7425 0.391875 1.485 0.78375 2.25 1.1875 C2.34765625 7.33984375 2.34765625 7.33984375 2.25 9.1875 C1.25 10.1875 1.25 10.1875 -2.1875 10.375 C-5.75 10.1875 -5.75 10.1875 -7.75 8.1875 C-7.6028623 4.72976402 -7.30210063 2.81847215 -5 0.1875 C-2.75 -0.8125 -2.75 -0.8125 0 0 Z " fill="#6459D9" transform="translate(75.75,211.8125)"/>
<path d="M0 0 C3.71846384 1.69021084 5.83135682 3.56682404 8 7 C8.88646555 11.83962271 8.7844519 16.46318577 6 20.625 C5.34 21.40875 4.68 22.1925 4 23 C3.34 22.67 2.68 22.34 2 22 C2.33 21.01 2.66 20.02 3 19 C3.66 19 4.32 19 5 19 C5.08082094 17.04233719 5.13910778 15.08373272 5.1875 13.125 C5.22230469 12.03445312 5.25710937 10.94390625 5.29296875 9.8203125 C5.14794922 8.42425781 5.14794922 8.42425781 5 7 C4.01 6.34 3.02 5.68 2 5 C2 4.34 2 3.68 2 3 C-5.05651252 2.85024761 -5.05651252 2.85024761 -12 4 C-8.12639347 -0.04967955 -5.66832754 -0.38429339 0 0 Z " fill="#897DD4" transform="translate(90,222)"/>
<path d="M0 0 C-0.33 1.32 -0.66 2.64 -1 4 C-1.78375 3.938125 -2.5675 3.87625 -3.375 3.8125 C-4.674375 3.9053125 -4.674375 3.9053125 -6 4 C-6.99 5.485 -6.99 5.485 -8 7 C-5.03 7.33 -2.06 7.66 1 8 C0.67 9.98 0.34 11.96 0 14 C-3.875 12.25 -3.875 12.25 -5 10 C-8.02934491 9.34227572 -8.02934491 9.34227572 -11 9 C-11 6.33333333 -11 3.66666667 -11 1 C-6.8204355 -1.78637633 -4.85331323 -0.79562512 0 0 Z " fill="#7365D8" transform="translate(500,209)"/>
<path d="M0 0 C0.33 0 0.66 0 1 0 C1.09038099 5.15171623 0.84681133 9.91913204 0 15 C0.99 15.33 1.98 15.66 3 16 C2.01 18.475 2.01 18.475 1 21 C1.66 21.33 2.32 21.66 3 22 C2.34 22.99 1.68 23.98 1 25 C-1 24 -1 24 -2 23 C-2 24.65 -2 26.3 -2 28 C-1.01 28.33 -0.02 28.66 1 29 C-0.65 29 -2.3 29 -4 29 C-5.455034 26.08993201 -4.49118441 24.37332332 -3.6875 21.25 C-1.97077661 14.20198424 -0.9167501 7.19379194 0 0 Z " fill="#857AD8" transform="translate(379,215)"/>
<path d="M0 0 C1.60294922 0.01353516 1.60294922 0.01353516 3.23828125 0.02734375 C4.04652344 0.03894531 4.85476563 0.05054687 5.6875 0.0625 C5.6875 0.7225 5.6875 1.3825 5.6875 2.0625 C6.3475 2.3925 7.0075 2.7225 7.6875 3.0625 C7.06875 3.10375 6.45 3.145 5.8125 3.1875 C5.11125 3.47625 4.41 3.765 3.6875 4.0625 C2.3829344 7.05865946 2.3829344 7.05865946 1.6875 10.0625 C1.0275 10.0625 0.3675 10.0625 -0.3125 10.0625 C-0.6425 8.0825 -0.9725 6.1025 -1.3125 4.0625 C-1.92738281 4.0625 -2.54226562 4.0625 -3.17578125 4.0625 C-6.5546875 4.0625 -9.93359375 4.0625 -13.3125 4.0625 C-11.3125 1.0625 -11.3125 1.0625 -9.08203125 0.37890625 C-6.02790519 0.02998635 -3.07360268 -0.03377585 0 0 Z " fill="#7568DA" transform="translate(258.3125,109.9375)"/>
<path d="M0 0 C2 2 2 2 2.1953125 4.1640625 C2.17210937 4.97617188 2.14890625 5.78828125 2.125 6.625 C2.10695313 7.44226563 2.08890625 8.25953125 2.0703125 9.1015625 C2.03550781 10.04128906 2.03550781 10.04128906 2 11 C1.34 11 0.68 11 0 11 C0.33 17.27 0.66 23.54 1 30 C0.01 30 -0.98 30 -2 30 C-4.76912624 24.46174751 -2.95931613 16.99932292 -1.51171875 11.25 C-0.66634089 7.5329187 -0.36109443 3.79149152 0 0 Z " fill="#8479D6" transform="translate(523,211)"/>
<path d="M0 0 C0.90105469 0.00902344 1.80210937 0.01804688 2.73046875 0.02734375 C3.41753906 0.03894531 4.10460937 0.05054688 4.8125 0.0625 C5.1425 0.7225 5.4725 1.3825 5.8125 2.0625 C1.1925 2.3925 -3.4275 2.7225 -8.1875 3.0625 C-8.1875 3.7225 -8.1875 4.3825 -8.1875 5.0625 C-7.1975 5.3925 -6.2075 5.7225 -5.1875 6.0625 C-6.44291557 8.57333114 -7.68813488 8.93375446 -10.1875 10.0625 C-9.8575 8.7425 -9.5275 7.4225 -9.1875 6.0625 C-10.1775 5.7325 -11.1675 5.4025 -12.1875 5.0625 C-12.1875 4.0725 -12.1875 3.0825 -12.1875 2.0625 C-16.8075 2.0625 -21.4275 2.0625 -26.1875 2.0625 C-26.1875 1.7325 -26.1875 1.4025 -26.1875 1.0625 C-20.1875 1.0625 -14.1875 1.0625 -8.1875 1.0625 C-5.17259443 0.05753148 -3.14568308 -0.04085303 0 0 Z " fill="#978EDD" transform="translate(408.1875,198.9375)"/>
<path d="M0 0 C0 0.66 0 1.32 0 2 C-0.99 2 -1.98 2 -3 2 C-3.33 3.65 -3.66 5.3 -4 7 C-6.64 6.67 -9.28 6.34 -12 6 C-12.66 4.35 -13.32 2.7 -14 1 C-9.54966382 -1.84821516 -4.89728799 -1.63242933 0 0 Z " fill="#6A5DE4" transform="translate(546,169)"/>
<path d="M0 0 C0.99 0 1.98 0 3 0 C3 2.25 3 2.25 2 5 C-4.11022289 9.3399714 -10.47443597 10.13662186 -17.8125 10.0625 C-18.97394531 10.05347656 -20.13539063 10.04445312 -21.33203125 10.03515625 C-22.21246094 10.02355469 -23.09289062 10.01195312 -24 10 C-24.33 9.34 -24.66 8.68 -25 8 C-24.09378906 7.93941406 -23.18757812 7.87882813 -22.25390625 7.81640625 C-15.47999388 7.35047577 -8.74113678 6.81358547 -2 6 C-2 5.01 -2 4.02 -2 3 C-1.34 3 -0.68 3 0 3 C0 2.01 0 1.02 0 0 Z " fill="#9890DB" transform="translate(582,235)"/>
<path d="M0 0 C1.65 0 3.3 0 5 0 C4.67 3.3 4.34 6.6 4 10 C3.01 9.01 2.02 8.02 1 7 C0.01 6.67 -0.98 6.34 -2 6 C-2 5.34 -2 4.68 -2 4 C-4.97 4 -7.94 4 -11 4 C-11.33 4.99 -11.66 5.98 -12 7 C-12 5.35 -12 3.7 -12 2 C-8.04 2 -4.08 2 0 2 C0 1.34 0 0.68 0 0 Z " fill="#9085D6" transform="translate(537,199)"/>
<path d="M0 0 C1.10345222 3.34921062 0.86110028 5.63912953 0.125 9.0625 C-0.99791331 14.69224105 -1.57952046 20.27926521 -2 26 C-0.35 25.67 1.3 25.34 3 25 C3 26.65 3 28.3 3 30 C1.68 30 0.36 30 -1 30 C-3.49564946 26.2565258 -3.3424939 23.27489868 -3.3125 18.9375 C-3.31121094 18.17832275 -3.30992187 17.41914551 -3.30859375 16.63696289 C-3.20790364 10.72582432 -2.26809778 5.49473688 0 0 Z " fill="#7C70D5" transform="translate(331,211)"/>
<path d="M0 0 C1 3 1 3 -1 8 C-6.61 8 -12.22 8 -18 8 C-18 7.34 -18 6.68 -18 6 C-12.94997778 4.96409801 -8.12583611 4.89748328 -3 5 C-3 3.68 -3 2.36 -3 1 C-2.01 0.67 -1.02 0.34 0 0 Z " fill="#9489DB" transform="translate(326,202)"/>
<path d="M0 0 C2.97 0.495 2.97 0.495 6 1 C6.495 3.475 6.495 3.475 7 6 C-3.23 6 -13.46 6 -24 6 C-24.66 7.32 -25.32 8.64 -26 10 C-26.33 10 -26.66 10 -27 10 C-27 8.35 -27 6.7 -27 5 C-17.1 5 -7.2 5 3 5 C2.2236068 1.9254644 2.2236068 1.9254644 0 0 Z " fill="#42443D" transform="translate(238,150)"/>
<path d="M0 0 C1.13598633 0.00483398 1.13598633 0.00483398 2.29492188 0.00976562 C3.47344727 0.02233398 3.47344727 0.02233398 4.67578125 0.03515625 C5.47306641 0.03966797 6.27035156 0.04417969 7.09179688 0.04882812 C9.05732382 0.06059775 11.0228121 0.07853277 12.98828125 0.09765625 C13.31828125 0.75765625 13.64828125 1.41765625 13.98828125 2.09765625 C8.37828125 2.09765625 2.76828125 2.09765625 -3.01171875 2.09765625 C-3.01171875 2.75765625 -3.01171875 3.41765625 -3.01171875 4.09765625 C-9.63671875 5.09765625 -9.63671875 5.09765625 -13.01171875 5.09765625 C-8.59393056 2.05429105 -5.42008501 -0.04075252 0 0 Z " fill="#8A81CC" transform="translate(567.01171875,198.90234375)"/>
<path d="M0 0 C0.99 0.33 1.98 0.66 3 1 C2.43258982 4.29097902 1.6101795 5.90253433 -1 8 C-3.26171875 8.51171875 -3.26171875 8.51171875 -5.6875 8.6875 C-6.49574219 8.75324219 -7.30398438 8.81898438 -8.13671875 8.88671875 C-8.75160156 8.92410156 -9.36648438 8.96148437 -10 9 C-10 7.68 -10 6.36 -10 5 C-9.34 5 -8.68 5 -8 5 C-8 4.34 -8 3.68 -8 3 C-5.03 3 -2.06 3 1 3 C0.67 2.01 0.34 1.02 0 0 Z " fill="#6C5CE0" transform="translate(453,214)"/>
<path d="M0 0 C2.31 0 4.62 0 7 0 C7.69699552 1.45381897 8.38233866 2.91322953 9.0625 4.375 C9.44535156 5.18710938 9.82820313 5.99921875 10.22265625 6.8359375 C10.47917969 7.55007812 10.73570313 8.26421875 11 9 C10.67 9.66 10.34 10.32 10 11 C8.0625 10.1875 8.0625 10.1875 6 9 C5.33333333 7 4.66666667 5 4 3 C3.34 3 2.68 3 2 3 C1.67 3.66 1.34 4.32 1 5 C0.67 3.35 0.34 1.7 0 0 Z " fill="#6556E4" transform="translate(91,129)"/>
<path d="M0 0 C-0.99 0.33 -1.98 0.66 -3 1 C-2.20063358 3.13701805 -2.20063358 3.13701805 -0.25 3.75 C2.64430225 4.07158914 4.40065973 3.22746624 7 2 C6.01 1.67 5.02 1.34 4 1 C5.32 1 6.64 1 8 1 C7.67 2.65 7.34 4.3 7 6 C3.7 6 0.4 6 -3 6 C-3.33 4.68 -3.66 3.36 -4 2 C-7.96 2 -11.92 2 -16 2 C-16 1.67 -16 1.34 -16 1 C-10.65097076 0.40801257 -5.39115154 -0.14187241 0 0 Z " fill="#ABA3EA" transform="translate(492,227)"/>
<path d="M0 0 C0.66 0 1.32 0 2 0 C2 0.66 2 1.32 2 2 C6.62 2 11.24 2 16 2 C16 2.66 16 3.32 16 4 C12.75118032 4.36560409 9.50085236 4.71547375 6.25 5.0625 C4.86941406 5.2181543 4.86941406 5.2181543 3.4609375 5.37695312 C2.12675781 5.51713867 2.12675781 5.51713867 0.765625 5.66015625 C-0.45979004 5.79369507 -0.45979004 5.79369507 -1.70996094 5.92993164 C-4.01968211 6.00060221 -5.8005391 5.67352969 -8 5 C-8 4.34 -8 3.68 -8 3 C-7.01 2.67 -6.02 2.34 -5 2 C-5 2.66 -5 3.32 -5 4 C-3.35 3.67 -1.7 3.34 0 3 C0 2.01 0 1.02 0 0 Z " fill="#A79FDE" transform="translate(573,213)"/>
<path d="M0 0 C0.66 0 1.32 0 2 0 C1.42085333 6.01326751 0.77662055 12.00892722 0 18 C1.65 18 3.3 18 5 18 C5.33 19.65 5.66 21.3 6 23 C5.67 22.01 5.34 21.02 5 20 C3.02 20 1.04 20 -1 20 C-3.44441481 15.47167759 -2.76348873 11.984761 -1.625 7.1875 C-1.47289062 6.49462891 -1.32078125 5.80175781 -1.1640625 5.08789062 C-0.78913167 3.38898528 -0.39634107 1.69403845 0 0 Z " fill="#A499DD" transform="translate(538,212)"/>
<path d="M0 0 C-0.33 0.99 -0.66 1.98 -1 3 C-2.32 3 -3.64 3 -5 3 C-5 3.66 -5 4.32 -5 5 C-5.95712891 5.25523437 -5.95712891 5.25523437 -6.93359375 5.515625 C-7.75988281 5.75796875 -8.58617187 6.0003125 -9.4375 6.25 C-10.26121094 6.48203125 -11.08492188 6.7140625 -11.93359375 6.953125 C-14.19995468 7.80770679 -14.19995468 7.80770679 -14.78515625 10.109375 C-14.85605469 10.73328125 -14.92695313 11.3571875 -15 12 C-15.66 12 -16.32 12 -17 12 C-15.25448586 6.28740827 -11.98716924 4.13552528 -6.9375 1.25 C-4 0 -4 0 0 0 Z " fill="#897CDB" transform="translate(447,200)"/>
<path d="M0 0 C0.33 0 0.66 0 1 0 C0.98839844 1.19496094 0.97679687 2.38992187 0.96484375 3.62109375 C0.87827909 15.34321693 0.87827909 15.34321693 2 27 C-0.710031 24.52562387 -1.86593754 22.67110413 -2.16796875 18.90625 C-2.22071007 12.40851922 -1.35185646 6.3488973 0 0 Z " fill="#988BDA" transform="translate(276,212)"/>
<path d="M0 0 C0.77321882 2.98241547 1.41196203 5.97580475 2 9 C1.01 8.67 0.02 8.34 -1 8 C-1.04125 9.258125 -1.0825 10.51625 -1.125 11.8125 C-1.14820313 12.52019531 -1.17140625 13.22789062 -1.1953125 13.95703125 C-1.13254462 16.31359719 -1.13254462 16.31359719 1 19 C1.125 21.6875 1.125 21.6875 1 24 C-3.36406492 18.30774141 -3.58747422 14.12802057 -3 7 C-2.23871075 4.41515743 -1.2758062 2.39213662 0 0 Z " fill="#877AD6" transform="translate(238,119)"/>
<path d="M0 0 C2.97 0.495 2.97 0.495 6 1 C6 1.66 6 2.32 6 3 C1.05 3.33 -3.9 3.66 -9 4 C-8.01 6.97 -7.02 9.94 -6 13 C-6.99 13 -7.98 13 -9 13 C-10.83691257 9.21812119 -11.15837626 7.05431692 -10 3 C-6.7 2.67 -3.4 2.34 0 2 C0 1.34 0 0.68 0 0 Z " fill="#ABA5E0" transform="translate(556,226)"/>
<path d="M0 0 C1.75 0.125 1.75 0.125 4 1 C8.17889036 6.4922559 9.12884523 10.17120281 9 17 C8.34 17.33 7.68 17.66 7 18 C6.92652344 17.04287109 6.92652344 17.04287109 6.8515625 16.06640625 C6.77679688 15.24011719 6.70203125 14.41382813 6.625 13.5625 C6.52058594 12.32693359 6.52058594 12.32693359 6.4140625 11.06640625 C6.20910156 10.04353516 6.20910156 10.04353516 6 9 C5.34 8.67 4.68 8.34 4 8 C4 6.68 4 5.36 4 4 C2.68 3.34 1.36 2.68 0 2 C0 1.34 0 0.68 0 0 Z " fill="#978CD5" transform="translate(319,183)"/>
<path d="M0 0 C0.33 0.99 0.66 1.98 1 3 C0.67 3.66 0.34 4.32 0 5 C1.32 4.67 2.64 4.34 4 4 C4 4.66 4 5.32 4 6 C2.68 6 1.36 6 0 6 C-0.33 7.98 -0.66 9.96 -1 12 C-0.34 12.33 0.32 12.66 1 13 C1.625 15.0625 1.625 15.0625 2 17 C1.34 17.33 0.68 17.66 0 18 C-3.04649573 14.06494302 -3.44908727 10.90707582 -3.3046875 6.09375 C-2.91306057 3.40257009 -1.95343704 1.87204383 0 0 Z " fill="#7E72D5" transform="translate(78,226)"/>
<path d="M0 0 C0 1.98 0 3.96 0 6 C5.1693489 5.59443869 5.1693489 5.59443869 10 4 C10 5.65 10 7.3 10 9 C4.06 8.01 4.06 8.01 -2 7 C-2 5.68 -2 4.36 -2 3 C-3.32 3.33 -4.64 3.66 -6 4 C-6 3.01 -6 2.02 -6 1 C-3 0 -3 0 0 0 Z " fill="#6F5FDB" transform="translate(347,211)"/>
<path d="M0 0 C4.95 0 9.9 0 15 0 C16.25541557 3.76624671 15.37061958 5.37188934 14 9 C13.06576355 5.98968256 12.95550089 5.13349732 14 2 C9.38 2.33 4.76 2.66 0 3 C0 2.01 0 1.02 0 0 Z " fill="#B1A5DE" transform="translate(354,227)"/>
<path d="M0 0 C0.66 0 1.32 0 2 0 C1.125 6.75 1.125 6.75 0 9 C-4.95 9 -9.9 9 -15 9 C-15 7.68 -15 6.36 -15 5 C-14.01 5 -13.02 5 -12 5 C-12 5.66 -12 6.32 -12 7 C-8.37 7.33 -4.74 7.66 -1 8 C-0.67 5.36 -0.34 2.72 0 0 Z " fill="#B0A8DF" transform="translate(516,208)"/>
<path d="M0 0 C1.65 0.33 3.3 0.66 5 1 C4.34 1.66 3.68 2.32 3 3 C3.33916995 6.18819752 3.98593683 8.95781049 5 12 C3.125 11.875 3.125 11.875 1 11 C-0.91502155 6.9875739 -1.25190641 4.25648179 0 0 Z " fill="#857CD2" transform="translate(473,229)"/>
<path d="M0 0 C0.99 0.33 1.98 0.66 3 1 C2.34 1 1.68 1 1 1 C1 1.66 1 2.32 1 3 C-3.31818182 7.65909091 -3.31818182 7.65909091 -6 9 C-6.375 6.75 -6.375 6.75 -6 4 C-3.1875 1.625 -3.1875 1.625 0 0 Z M-8 9 C-7.34 9.33 -6.68 9.66 -6 10 C-6.33 11.65 -6.66 13.3 -7 15 C-7.66 15 -8.32 15 -9 15 C-9.042721 13.33388095 -9.04063832 11.66617115 -9 10 C-8.67 9.67 -8.34 9.34 -8 9 Z " fill="#6F60E4" transform="translate(487,200)"/>
<path d="M0 0 C4.01349645 0.28001138 5.72035142 0.75763789 8.8125 3.4375 C12.25160414 7.46616485 12.09718161 9.75219332 12 15 C11.67 15 11.34 15 11 15 C11 13.02 11 11.04 11 9 C10.34 9 9.68 9 9 9 C9 7.68 9 6.36 9 5 C8.01 5 7.02 5 6 5 C6 4.34 6 3.68 6 3 C4.02 3 2.04 3 0 3 C0 2.01 0 1.02 0 0 Z " fill="#958BD9" transform="translate(576,218)"/>
<path d="M0 0 C1.3271261 3.9813783 1.06915913 7.85045227 1 12 C1.66 12.33 2.32 12.66 3 13 C1.35 12.67 -0.3 12.34 -2 12 C-2.66 9.36 -3.32 6.72 -4 4 C-3.01 3.67 -2.02 3.34 -1 3 C-0.67 2.01 -0.34 1.02 0 0 Z " fill="#857ADA" transform="translate(292,217)"/>
<path d="M0 0 C0.33 0.66 0.66 1.32 1 2 C-1.56428003 6.17882671 -4.01930733 9.12505529 -8 12 C-8.08226668 8.95613276 -7.97608217 6.92824652 -7 4 C-5.02 4.495 -5.02 4.495 -3 5 C-2.814375 4.0409375 -2.814375 4.0409375 -2.625 3.0625 C-2.41875 2.381875 -2.2125 1.70125 -2 1 C-1.34 0.67 -0.68 0.34 0 0 Z " fill="#8177D4" transform="translate(274,137)"/>
<path d="M0 0 C4.875 3.75 4.875 3.75 6 6 C6.06950541 7.54023996 6.08452357 9.08334988 6.0625 10.625 C6.05347656 11.44226563 6.04445313 12.25953125 6.03515625 13.1015625 C6.02355469 13.72804687 6.01195313 14.35453125 6 15 C5.01 15.495 5.01 15.495 4 16 C3.81824219 15.14728516 3.81824219 15.14728516 3.6328125 14.27734375 C2.58677946 9.45754536 1.40795516 4.7267066 0 0 Z " fill="#8B83D2" transform="translate(98,129)"/>
<path d="M0 0 C2.28062828 3.42094242 2.21925007 4.68187222 2.125 8.6875 C2.10695313 9.68136719 2.08890625 10.67523438 2.0703125 11.69921875 C2.03550781 12.83810547 2.03550781 12.83810547 2 14 C3.32 14.33 4.64 14.66 6 15 C6 15.66 6 16.32 6 17 C3.04399978 16.14431573 1.39563142 15.57546388 -0.375 13 C-1.2969377 8.57469905 -0.63825271 4.44189387 0 0 Z " fill="#897ECD" transform="translate(550,209)"/>
<path d="M0 0 C0.33 0 0.66 0 1 0 C0.54240047 6.5508985 -0.2100144 12.6753842 -2 19 C-3.98 19 -5.96 19 -8 19 C-7.34 18.34 -6.68 17.68 -6 17 C-5.01 17 -4.02 17 -3 17 C-3.061875 15.4221875 -3.061875 15.4221875 -3.125 13.8125 C-3.00574318 10.17516694 -2.45415073 8.25045456 -1 5 C-0.63128912 3.34080104 -0.28718326 1.6752357 0 0 Z " fill="#948BD7" transform="translate(392,225)"/>
<path d="M0 0 C0.7425 0.391875 1.485 0.78375 2.25 1.1875 C1.92 1.8475 1.59 2.5075 1.25 3.1875 C-0.07 2.5275 -1.39 1.8675 -2.75 1.1875 C-2.75 1.8475 -2.75 2.5075 -2.75 3.1875 C-3.41 3.1875 -4.07 3.1875 -4.75 3.1875 C-4.75 5.4975 -4.75 7.8075 -4.75 10.1875 C-5.74 9.5275 -6.73 8.8675 -7.75 8.1875 C-7.45062346 4.81951391 -7.26071208 2.77117095 -5 0.1875 C-2.75 -0.8125 -2.75 -0.8125 0 0 Z " fill="#A398DA" transform="translate(75.75,211.8125)"/>
<path d="M0 0 C1.65 0.33 3.3 0.66 5 1 C4.67 4.63 4.34 8.26 4 12 C3.01 12.33 2.02 12.66 1 13 C1.33 9.37 1.66 5.74 2 2 C1.01 1.67 0.02 1.34 -1 1 C-0.67 0.67 -0.34 0.34 0 0 Z " fill="#877CCB" transform="translate(419,230)"/>
<path d="M0 0 C0.99 0 1.98 0 3 0 C3.33 1.65 3.66 3.3 4 5 C6.31 5 8.62 5 11 5 C11 5.33 11 5.66 11 6 C9.88625 6.28875 8.7725 6.5775 7.625 6.875 C3.99708908 7.69241329 3.99708908 7.69241329 2 10 C2 8.02 2 6.04 2 4 C1.01 3.67 0.02 3.34 -1 3 C-0.67 2.01 -0.34 1.02 0 0 Z " fill="#7F70E1" transform="translate(562,206)"/>
<path d="M0 0 C2.31 0.33 4.62 0.66 7 1 C7 4.3 7 7.6 7 11 C6.01 11.33 5.02 11.66 4 12 C4.33 8.7 4.66 5.4 5 2 C3.35 2 1.7 2 0 2 C0 1.34 0 0.68 0 0 Z " fill="#7D72CE" transform="translate(536,231)"/>
<path d="M0 0 C1.07636719 0.04833984 2.15273438 0.09667969 3.26171875 0.14648438 C4.38964844 0.20255859 5.51757812 0.25863281 6.6796875 0.31640625 C7.81535156 0.36861328 8.95101563 0.42082031 10.12109375 0.47460938 C12.93255381 0.60455081 15.74368215 0.73952539 18.5546875 0.87890625 C18.5546875 1.20890625 18.5546875 1.53890625 18.5546875 1.87890625 C17.47985107 1.90863525 17.47985107 1.90863525 16.38330078 1.93896484 C13.1483812 2.03400144 9.91412656 2.14376644 6.6796875 2.25390625 C4.98779297 2.3003125 4.98779297 2.3003125 3.26171875 2.34765625 C2.18535156 2.38632813 1.10898437 2.425 0 2.46484375 C-0.99499512 2.49626465 -1.98999023 2.52768555 -3.01513672 2.56005859 C-5.62385767 2.65137708 -5.62385767 2.65137708 -7.4453125 4.87890625 C-7.4453125 3.55890625 -7.4453125 2.23890625 -7.4453125 0.87890625 C-4.79709238 -0.44520381 -2.95593056 -0.14001776 0 0 Z " fill="#AAA5D7" transform="translate(450.4453125,223.12109375)"/>
<path d="M0 0 C2.9375 1.5 2.9375 1.5 5 3 C2.42359548 4.28820226 1.02473928 3.87432842 -1.8125 3.5 C-5.45520945 3.08353973 -8.43611504 2.93083451 -12 4 C-8.12639347 -0.04967955 -5.66832754 -0.38429339 0 0 Z " fill="#A7A0D9" transform="translate(90,222)"/>
<path d="M0 0 C2.97 0.33 5.94 0.66 9 1 C9 1.66 9 2.32 9 3 C9.66 3.33 10.32 3.66 11 4 C8.69 3.67 6.38 3.34 4 3 C4.495 3.45375 4.99 3.9075 5.5 4.375 C7 6 7 6 7 8 C5.0625 7.25 5.0625 7.25 3 6 C2.375 4 2.375 4 2 2 C1.34 1.34 0.68 0.68 0 0 Z " fill="#695AD5" transform="translate(83,224)"/>
<path d="M0 0 C0 1.65 0 3.3 0 5 C-0.33 4.34 -0.66 3.68 -1 3 C-1.99 3.33 -2.98 3.66 -4 4 C-4.639375 3.814375 -5.27875 3.62875 -5.9375 3.4375 C-8.60357285 2.8719694 -9.72275075 3.61738438 -12 5 C-12 3.68 -12 2.36 -12 1 C-10.37512529 0.83211627 -8.75009558 0.66573213 -7.125 0.5 C-6.22007812 0.4071875 -5.31515625 0.314375 -4.3828125 0.21875 C-2 0 -2 0 0 0 Z " fill="#7F72DA" transform="translate(359,210)"/>
<path d="M0 0 C0.66 0.33 1.32 0.66 2 1 C0.44499019 4.81684226 -2.03595495 7.19195732 -5 10 C-5.99 9.67 -6.98 9.34 -8 9 C-6.85459775 7.68712379 -5.70866567 6.37470979 -4.5625 5.0625 C-3.92441406 4.33160156 -3.28632813 3.60070312 -2.62890625 2.84765625 C-1.77458541 1.87860647 -0.91348825 0.91348825 0 0 Z " fill="#8C80DB" transform="translate(289,184)"/>
<path d="M0 0 C0.33 0 0.66 0 1 0 C1 2.97 1 5.94 1 9 C2.65 8.34 4.3 7.68 6 7 C5.34 8.65 4.68 10.3 4 12 C3.01 11.67 2.02 11.34 1 11 C1 12.32 1 13.64 1 15 C0.34 15 -0.32 15 -1 15 C-0.67 10.05 -0.34 5.1 0 0 Z " fill="#6B5CD7" transform="translate(380,215)"/>
<path d="M0 0 C1 3 1 3 0.375 5.0625 C-1.40232276 7.56690935 -3.1198813 8.09048883 -6 9 C-5.67 7.68 -5.34 6.36 -5 5 C-5.66 4.67 -6.32 4.34 -7 4 C-6.01 3.34 -5.02 2.68 -4 2 C-4 2.66 -4 3.32 -4 4 C-2.68 2.68 -1.36 1.36 0 0 Z " fill="#8878DA" transform="translate(513,232)"/>
<path d="M0 0 C-0.17625835 2.37948772 -0.69719773 3.70225849 -2.40234375 5.37890625 C-3.90649092 6.62115486 -5.45129851 7.81376056 -7 9 C-7.66 8.67 -8.32 8.34 -9 8 C-8.67 7.34 -8.34 6.68 -8 6 C-7.01 6 -6.02 6 -5 6 C-5 5.34 -5 4.68 -5 4 C-5.66 3.67 -6.32 3.34 -7 3 C-2.25 0 -2.25 0 0 0 Z " fill="#8A7ED8" transform="translate(465,234)"/>
<path d="M0 0 C0.33 0 0.66 0 1 0 C1.26666667 8 1.26666667 8 -1 12 C-1.38290462 13.99110401 -1.72604615 15.99100513 -2 18 C-2.33 18 -2.66 18 -3 18 C-2.88521587 15.93690624 -2.75773802 13.87451646 -2.625 11.8125 C-2.55539062 10.66394531 -2.48578125 9.51539063 -2.4140625 8.33203125 C-2.02490426 5.20040883 -1.3190149 2.84714191 0 0 Z " fill="#958AD3" transform="translate(280,194)"/>
<path d="M0 0 C3.1068009 2.54192801 4.07281312 5.13672134 5 9 C4.625 11.875 4.625 11.875 4 14 C1.01520806 9.52281208 0 5.36175907 0 0 Z " fill="#9687D4" transform="translate(551,172)"/>
<path d="M0 0 C1.98 0 3.96 0 6 0 C4.19656559 3.18253131 3.03210883 3.98715647 -0.4375 5.375 C-4 6 -4 6 -6.4375 5.125 C-6.953125 4.75375 -7.46875 4.3825 -8 4 C-4.535 3.505 -4.535 3.505 -1 3 C-0.67 2.01 -0.34 1.02 0 0 Z " fill="#8C7ED5" transform="translate(96,146)"/>
<path d="M0 0 C1.20220203 3.53094302 0.79532349 6.12898982 0.0625 9.75 C-0.13214844 10.73484375 -0.32679688 11.7196875 -0.52734375 12.734375 C-0.68332031 13.48203125 -0.83929688 14.2296875 -1 15 C-1.66 15 -2.32 15 -3 15 C-2.22095672 4.44191344 -2.22095672 4.44191344 0 0 Z " fill="#9F93DA" transform="translate(331,211)"/>
<path d="M0 0 C0.99 0.33 1.98 0.66 3 1 C4.56118428 1.06740865 6.1250252 1.08514456 7.6875 1.0625 C8.49574219 1.05347656 9.30398438 1.04445312 10.13671875 1.03515625 C10.75160156 1.02355469 11.36648438 1.01195312 12 1 C12.33 1.66 12.66 2.32 13 3 C11.783125 2.9175 10.56625 2.835 9.3125 2.75 C5.83360474 2.72528316 5.06167336 2.95888443 2 5 C1.34 5.66 0.68 6.32 0 7 C0 4.69 0 2.38 0 0 Z " fill="#8A82D5" transform="translate(296,193)"/>
<path d="M0 0 C2.81264969 2.54045779 4.55059074 4.18002129 5 8 C5.03845443 9.99963028 5.04544281 12.00051633 5 14 C4.01 14.495 4.01 14.495 3 15 C2.86722656 14.25234375 2.73445313 13.5046875 2.59765625 12.734375 C2.42105469 11.74953125 2.24445313 10.7646875 2.0625 9.75 C1.88847656 8.77546875 1.71445312 7.8009375 1.53515625 6.796875 C1.09620271 4.50278205 0.59651408 2.25708029 0 0 Z " fill="#9890D2" transform="translate(466,203)"/>
<path d="M0 0 C0.66 0.33 1.32 0.66 2 1 C1.34 1.66 0.68 2.32 0 3 C-0.66 2.67 -1.32 2.34 -2 2 C-2 3.65 -2 5.3 -2 7 C-2.99 7 -3.98 7 -5 7 C-5.33 7.66 -5.66 8.32 -6 9 C-6.33 8.01 -6.66 7.02 -7 6 C-4.84656811 2.76985216 -3.72940389 1.24313463 0 0 Z " fill="#7C72D4" transform="translate(530,170)"/>
<path d="M0 0 C0.556875 0.78375 1.11375 1.5675 1.6875 2.375 C4.07668565 5.08704858 5.60073413 5.96133543 9 7 C8.67 7.66 8.34 8.32 8 9 C4.71752159 8.12467243 2.49145848 7.49145848 0.0625 5.0625 C-0.288125 4.381875 -0.63875 3.70125 -1 3 C-0.67 2.01 -0.34 1.02 0 0 Z " fill="#8D7FD4" transform="translate(428,235)"/>
<path d="M0 0 C2.5654594 2.5654594 2.54046087 4.47686668 3 8 C2.01 8.33 1.02 8.66 0 9 C-0.33 9.66 -0.66 10.32 -1 11 C-1.125 3.375 -1.125 3.375 0 0 Z " fill="#877BDA" transform="translate(429,212)"/>
<path d="M0 0 C0.66 0 1.32 0 2 0 C2 1.32 2 2.64 2 4 C1.01 4.495 1.01 4.495 0 5 C-0.69093896 7.57951874 -0.69093896 7.57951874 -1.125 10.5625 C-1.29257812 11.57441406 -1.46015625 12.58632812 -1.6328125 13.62890625 C-1.75398438 14.41136719 -1.87515625 15.19382813 -2 16 C-2.33 16 -2.66 16 -3 16 C-3.32712342 9.86946489 -3.39366878 5.37330889 0 0 Z " fill="#978DD6" transform="translate(479,205)"/>
<path d="M0 0 C0.99 0 1.98 0 3 0 C3.84098656 4.01804691 4.05404945 7.01803543 3 11 C1.47657021 8.06195683 0.07229283 5.13439441 -1 2 C-0.67 1.34 -0.34 0.68 0 0 Z " fill="#8B7DE1" transform="translate(291,205)"/>
<path d="M0 0 C4.43090471 1.20842856 6.98112756 2.51668565 10 6 C9.67 6.66 9.34 7.32 9 8 C7 6.625 7 6.625 5 5 C5 4.34 5 3.68 5 3 C3.02 3 1.04 3 -1 3 C-0.67 2.01 -0.34 1.02 0 0 Z " fill="#9088D4" transform="translate(362,200)"/>
<path d="M0 0 C1.98146451 0.44829514 3.96014211 0.90892498 5.9375 1.375 C7.03964844 1.63023437 8.14179688 1.88546875 9.27734375 2.1484375 C10.17582031 2.42945313 11.07429687 2.71046875 12 3 C12.33 3.66 12.66 4.32 13 5 C11.58217855 4.93940934 10.16555534 4.85045877 8.75 4.75 C7.56664062 4.68039063 7.56664062 4.68039063 6.359375 4.609375 C3.32101328 3.82463257 2.03158688 2.32980147 0 0 Z " fill="#857BCE" transform="translate(242,146)"/>
<path d="M0 0 C0 0.66 0 1.32 0 2 C0.66 2.33 1.32 2.66 2 3 C-0.97 3.66 -3.94 4.32 -7 5 C-7.33 4.01 -7.66 3.02 -8 2 C-5.09399739 0.74335022 -3.20395416 0 0 0 Z " fill="#6A5AE1" transform="translate(262,146)"/>
<path d="M0 0 C-0.75 1.9375 -0.75 1.9375 -2 4 C-4.125 4.75 -4.125 4.75 -6 5 C-6 5.66 -6 6.32 -6 7 C-6.66 7 -7.32 7 -8 7 C-6.4365884 2.43002763 -5.27390657 0 0 0 Z " fill="#8076CF" transform="translate(340,204)"/>
<path d="M0 0 C2.91517292 1.07401108 4.77810176 1.77810176 7 4 C6.625 6.125 6.625 6.125 6 8 C5.67 6.68 5.34 5.36 5 4 C3.68 4.33 2.36 4.66 1 5 C1 4.01 1 3.02 1 2 C0.34 1.67 -0.32 1.34 -1 1 C-0.67 0.67 -0.34 0.34 0 0 Z " fill="#897EDB" transform="translate(510,201)"/>
<path d="M0 0 C0.66 0 1.32 0 2 0 C1.06788763 2.33028092 0.30996602 3.75891532 -1.6875 5.3125 C-4.9760002 6.29016222 -7.67519127 5.63938629 -11 5 C-11 4.67 -11 4.34 -11 4 C-8.69 4 -6.38 4 -4 4 C-4 3.34 -4 2.68 -4 2 C-2.68 2 -1.36 2 0 2 C0 1.34 0 0.68 0 0 Z " fill="#8B81D5" transform="translate(549,193)"/>
<path d="M0 0 C0.66 0 1.32 0 2 0 C2 1.32 2 2.64 2 4 C-2.455 4.495 -2.455 4.495 -7 5 C-7 4.01 -7 3.02 -7 2 C-6.21625 2.04125 -5.4325 2.0825 -4.625 2.125 C-1.83883881 2.28728734 -1.83883881 2.28728734 0 0 Z " fill="#6C5BEC" transform="translate(463,230)"/>
<path d="M0 0 C1.45792884 -0.05399736 2.91642712 -0.09279177 4.375 -0.125 C5.18710937 -0.14820313 5.99921875 -0.17140625 6.8359375 -0.1953125 C9 0 9 0 11 2 C7.7 2.33 4.4 2.66 1 3 C0.67 2.01 0.34 1.02 0 0 Z " fill="#776BDA" transform="translate(479,241)"/>
<path d="M0 0 C0.33 0 0.66 0 1 0 C1 2.97 1 5.94 1 9 C1.66 9 2.32 9 3 9 C3.33 10.65 3.66 12.3 4 14 C2.0625 13.1875 2.0625 13.1875 0 12 C-1.03159626 8.90521121 -0.97482862 7.47368607 -0.5625 4.3125 C-0.46066406 3.50425781 -0.35882813 2.69601563 -0.25390625 1.86328125 C-0.17011719 1.24839844 -0.08632813 0.63351563 0 0 Z " fill="#887DD9" transform="translate(402,230)"/>
<path d="M0 0 C3.12270126 2.51830747 3.94523098 3.7261549 4.75 7.75 C4.8325 8.8225 4.915 9.895 5 11 C4.34 11 3.68 11 3 11 C2.49632243 9.54293274 1.99717444 8.08429904 1.5 6.625 C1.2215625 5.81289062 0.943125 5.00078125 0.65625 4.1640625 C0 2 0 2 0 0 Z " fill="#9289D4" transform="translate(416,201)"/>
<path d="M0 0 C0.598125 0.226875 1.19625 0.45375 1.8125 0.6875 C-1.9375 3.6875 -1.9375 3.6875 -4.1875 3.6875 C-4.5175 5.0075 -4.8475 6.3275 -5.1875 7.6875 C-5.8475 7.6875 -6.5075 7.6875 -7.1875 7.6875 C-4.27205882 -0.61029412 -4.27205882 -0.61029412 0 0 Z " fill="#8E85D5" transform="translate(437.1875,204.3125)"/>
<path d="M0 0 C6.625 -0.125 6.625 -0.125 10 1 C10 1.66 10 2.32 10 3 C9.01 3 8.02 3 7 3 C6.67 3.99 6.34 4.98 6 6 C5.67 6 5.34 6 5 6 C5 4.35 5 2.7 5 1 C3.35 1 1.7 1 0 1 C0 0.67 0 0.34 0 0 Z " fill="#6457DB" transform="translate(536,168)"/>
<path d="M0 0 C0.33 0.66 0.66 1.32 1 2 C1.763125 1.79375 2.52625 1.5875 3.3125 1.375 C6 1 6 1 9 3 C8.07767578 3.03867188 8.07767578 3.03867188 7.13671875 3.078125 C2.00745409 3.2814648 2.00745409 3.2814648 -2.0625 6.0625 C-2.371875 6.701875 -2.68125 7.34125 -3 8 C-3 6.35 -3 4.7 -3 3 C-2.01 2.67 -1.02 2.34 0 2 C0 1.34 0 0.68 0 0 Z " fill="#5E5F47" transform="translate(372,140)"/>
<path d="M0 0 C0.66 1.32 1.32 2.64 2 4 C-0.475 5.485 -0.475 5.485 -3 7 C-3 5.02 -3 3.04 -3 1 C-2.01 0.67 -1.02 0.34 0 0 Z " fill="#887BDC" transform="translate(365,234)"/>
<path d="M0 0 C0.66 0 1.32 0 2 0 C2.66 1.98 3.32 3.96 4 6 C3 7 3 7 -0.0625 7.0625 C-1.5165625 7.0315625 -1.5165625 7.0315625 -3 7 C-2.505 6.21625 -2.01 5.4325 -1.5 4.625 C0.16537965 2.21447673 0.16537965 2.21447673 0 0 Z " fill="#7368DC" transform="translate(74,215)"/>
<path d="M0 0 C-0.66 0.66 -1.32 1.32 -2 2 C-2.99 1.67 -3.98 1.34 -5 1 C-7.16715557 1.87483915 -7.16715557 1.87483915 -9 3 C-8.67 1.68 -8.34 0.36 -8 -1 C-4.59745511 -2.2151946 -3.06748874 -1.86240388 0 0 Z " fill="#847AD6" transform="translate(454,212)"/>
<path d="M0 0 C3.63 0.33 7.26 0.66 11 1 C8.8100858 3.1899142 8.03659495 3.73972043 5 4 C2.25 2.625 2.25 2.625 0 1 C0 0.67 0 0.34 0 0 Z " fill="#7D71DB" transform="translate(559,230)"/>
<path d="M0 0 C0.66 0 1.32 0 2 0 C2 2.97 2 5.94 2 9 C1.01 9.495 1.01 9.495 0 10 C-1.125 2.25 -1.125 2.25 0 0 Z " fill="#786BCE" transform="translate(585,227)"/>
<path d="M0 0 C0.33 0 0.66 0 1 0 C1.12375 0.78375 1.2475 1.5675 1.375 2.375 C1.79117993 5.14057822 1.79117993 5.14057822 4 7 C0.625 7.125 0.625 7.125 -3 7 C-3.66 6.34 -4.32 5.68 -5 5 C-3.68 4.67 -2.36 4.34 -1 4 C-0.67 2.68 -0.34 1.36 0 0 Z " fill="#685BD0" transform="translate(561,220)"/>
<path d="M0 0 C0.53625 0.2475 1.0725 0.495 1.625 0.75 C1.625 1.41 1.625 2.07 1.625 2.75 C-5 3.75 -5 3.75 -8.375 3.75 C-2.95961538 -0.31153846 -2.95961538 -0.31153846 0 0 Z " fill="#968DD7" transform="translate(562.375,200.25)"/>
<path d="M0 0 C1.9375 0.8125 1.9375 0.8125 4 2 C4.33 2.99 4.66 3.98 5 5 C4.01 5.66 3.02 6.32 2 7 C0.4375 5.1875 0.4375 5.1875 -1 3 C-0.67 2.01 -0.34 1.02 0 0 Z " fill="#695BD6" transform="translate(523,178)"/>
<path d="M0 0 C2.31 0 4.62 0 7 0 C6.67 0.66 6.34 1.32 6 2 C4.66666667 2.33333333 3.33333333 2.66666667 2 3 C1.67 3.66 1.34 4.32 1 5 C0.67 3.35 0.34 1.7 0 0 Z " fill="#665AD2" transform="translate(91,129)"/>
<path d="M0 0 C3.35620271 1.38877354 5.07298728 2.91677965 7 6 C7 6.66 7 7.32 7 8 C6.01 8 5.02 8 4 8 C3.67 6.35 3.34 4.7 3 3 C2.34 3 1.68 3 1 3 C0.67 2.01 0.34 1.02 0 0 Z " fill="#8D84D5" transform="translate(267,113)"/>
<path d="M0 0 C1.44977894 2.34112451 2.04314411 3.5796929 1.7578125 6.359375 C1.54898437 7.14828125 1.34015625 7.9371875 1.125 8.75 C0.92132813 9.54921875 0.71765625 10.3484375 0.5078125 11.171875 C0.34023438 11.77515625 0.17265625 12.3784375 0 13 C-0.33 13 -0.66 13 -1 13 C-1.0272415 11.58344207 -1.04650467 10.16672955 -1.0625 8.75 C-1.07410156 7.96109375 -1.08570313 7.1721875 -1.09765625 6.359375 C-1.00385306 4.09308998 -0.63241063 2.1711105 0 0 Z " fill="#8D83CC" transform="translate(427,223)"/>
<path d="M0 0 C0.33 0 0.66 0 1 0 C1 1.65 1 3.3 1 5 C-2.63 4.34 -6.26 3.68 -10 3 C-9.67 2.34 -9.34 1.68 -9 1 C-7.700625 1.020625 -6.40125 1.04125 -5.0625 1.0625 C-3.70834367 1.08399454 -2.35243917 1.07148199 -1 1 C-0.67 0.67 -0.34 0.34 0 0 Z " fill="#B1A8E2" transform="translate(356,215)"/>
<path d="M0 0 C3.96 0.33 7.92 0.66 12 1 C12 1.33 12 1.66 12 2 C10.95199219 2.09087891 10.95199219 2.09087891 9.8828125 2.18359375 C8.97273438 2.26738281 8.06265625 2.35117188 7.125 2.4375 C6.22007812 2.51871094 5.31515625 2.59992188 4.3828125 2.68359375 C1.98889139 2.86989285 1.98889139 2.86989285 0 4 C0 2.68 0 1.36 0 0 Z " fill="#909076" transform="translate(376,174)"/>
<path d="M0 0 C0.33 0 0.66 0 1 0 C2.07421875 5.95703125 2.07421875 5.95703125 2 8 C1.01 8.99 0.02 9.98 -1 11 C-0.67 7.37 -0.34 3.74 0 0 Z " fill="#6C5DCC" transform="translate(403,219)"/>
<path d="M0 0 C0.99 0.33 1.98 0.66 3 1 C2.67 2.32 2.34 3.64 2 5 C-0.97 4.67 -3.94 4.34 -7 4 C-7 3.67 -7 3.34 -7 3 C-4.36 3 -1.72 3 1 3 C0.67 2.01 0.34 1.02 0 0 Z " fill="#9B94DA" transform="translate(453,214)"/>
<path d="M0 0 C-0.66 0 -1.32 0 -2 0 C-2 0.66 -2 1.32 -2 2 C-5 4 -5 4 -8 4 C-7 1 -7 1 -5.125 -0.25 C-3 -1 -3 -1 0 0 Z " fill="#9389D9" transform="translate(490,201)"/>
<path d="M0 0 C1.32 0 2.64 0 4 0 C3.67 0.99 3.34 1.98 3 3 C0.4375 4.1875 0.4375 4.1875 -2 5 C-1.34 3.35 -0.68 1.7 0 0 Z " fill="#9285D9" transform="translate(314,236)"/>
<path d="M0 0 C1.32 0 2.64 0 4 0 C3.67 1.65 3.34 3.3 3 5 C2.01 5.33 1.02 5.66 0 6 C0 4.02 0 2.04 0 0 Z " fill="#5B5B3D" transform="translate(419,160)"/>
<path d="M0 0 C3.93846154 3.32307692 3.93846154 3.32307692 4.25 6.75 C4.1675 7.4925 4.085 8.235 4 9 C1.49701566 6.06171403 0.53069061 3.82097239 0 0 Z " fill="#9C94D6" transform="translate(235,134)"/>
<path d="M0 0 C0.33 0.66 0.66 1.32 1 2 C0.34 1.67 -0.32 1.34 -1 1 C-0.67 0.67 -0.34 0.34 0 0 Z " fill="#555555" transform="translate(246,201)"/>
<path d="" fill="#FFFFFF" transform="translate(0,0)"/>
<path d="" fill="#BFBF9F" transform="translate(0,0)"/>
<path d="" fill="#7F7F7F" transform="translate(0,0)"/>
<path d="" fill="#FFFFFF" transform="translate(0,0)"/>
<path d="" fill="#FFFFFF" transform="translate(0,0)"/>
<path d="" fill="#808040" transform="translate(0,0)"/>
<path d="" fill="#000000" transform="translate(0,0)"/>
<path d="" fill="#808080" transform="translate(0,0)"/>
<path d="" fill="#808080" transform="translate(0,0)"/>
<path d="" fill="#FFFFFF" transform="translate(0,0)"/>
<path d="" fill="#FFFFFF" transform="translate(0,0)"/>
<path d="" fill="#000000" transform="translate(0,0)"/>
<path d="" fill="#000000" transform="translate(0,0)"/>
<path d="" fill="#FF0000" transform="translate(0,0)"/>
<path d="" fill="#808080" transform="translate(0,0)"/>
<path d="" fill="#000000" transform="translate(0,0)"/>
<path d="" fill="#000000" transform="translate(0,0)"/>
<path d="" fill="#FFFFFF" transform="translate(0,0)"/>
<path d="" fill="#FFFFFF" transform="translate(0,0)"/>
<path d="" fill="#808080" transform="translate(0,0)"/>
</svg>
